<svg xmlns="http://www.w3.org/2000/svg" xmlns:xlink="http://www.w3.org/1999/xlink" width="448.644" height="335.579" viewBox="0 0 448.644 335.579">
  <defs>
    <linearGradient id="linear-gradient" x1="0.5" y1="1" x2="0.5" gradientUnits="objectBoundingBox">
      <stop offset="0" stop-color="gray" stop-opacity="0.251"/>
      <stop offset="0.54" stop-color="gray" stop-opacity="0.122"/>
      <stop offset="1" stop-color="gray" stop-opacity="0.102"/>
    </linearGradient>
    <linearGradient id="linear-gradient-2" x1="0.5" y1="1" x2="0.5" y2="-0.001" xlink:href="#linear-gradient"/>
    <linearGradient id="linear-gradient-3" x1="0.499" y1="1" x2="0.499" y2="-0.001" xlink:href="#linear-gradient"/>
    <linearGradient id="linear-gradient-4" x1="0.5" y1="1" x2="0.5" y2="0" xlink:href="#linear-gradient"/>
    <linearGradient id="linear-gradient-5" x1="0.5" y1="1" x2="0.5" y2="0" xlink:href="#linear-gradient"/>
    <linearGradient id="linear-gradient-6" x1="0.5" y1="1" x2="0.5" y2="0" xlink:href="#linear-gradient"/>
    <linearGradient id="linear-gradient-7" x1="0.5" y1="0.995" x2="0.5" y2="0" xlink:href="#linear-gradient"/>
    <linearGradient id="linear-gradient-8" x1="0.5" y1="0.999" x2="0.5" y2="0.001" xlink:href="#linear-gradient"/>
    <linearGradient id="linear-gradient-9" x1="0.5" y1="0.998" x2="0.5" y2="0" xlink:href="#linear-gradient"/>
    <linearGradient id="linear-gradient-10" x1="0.5" y1="1" x2="0.5" y2="0" xlink:href="#linear-gradient"/>
    <linearGradient id="linear-gradient-11" x1="0.5" y1="1" x2="0.5" y2="0" xlink:href="#linear-gradient"/>
    <linearGradient id="linear-gradient-12" x1="0.5" y1="1" x2="0.5" y2="0" xlink:href="#linear-gradient"/>
    <linearGradient id="linear-gradient-13" x1="0.5" y1="0.999" x2="0.5" y2="-0.001" xlink:href="#linear-gradient"/>
    <linearGradient id="linear-gradient-14" x1="0.5" y1="1" x2="0.5" y2="0" xlink:href="#linear-gradient"/>
    <linearGradient id="linear-gradient-15" x1="0.5" y1="1" x2="0.5" y2="-0.002" xlink:href="#linear-gradient"/>
    <linearGradient id="linear-gradient-16" x1="0.5" y1="0.998" x2="0.5" y2="-0.002" xlink:href="#linear-gradient"/>
    <linearGradient id="linear-gradient-17" x1="0.498" y1="1" x2="0.498" y2="0" xlink:href="#linear-gradient"/>
    <linearGradient id="linear-gradient-18" x1="0.499" y1="0.999" x2="0.499" y2="-0.002" xlink:href="#linear-gradient"/>
    <linearGradient id="linear-gradient-19" x1="0.5" y1="1" x2="0.5" y2="0.001" xlink:href="#linear-gradient"/>
    <linearGradient id="linear-gradient-20" x1="0.5" y1="1" x2="0.5" y2="0" xlink:href="#linear-gradient"/>
    <linearGradient id="linear-gradient-21" x1="0.498" y1="1.001" x2="0.498" y2="0" xlink:href="#linear-gradient"/>
    <linearGradient id="linear-gradient-22" x1="0.498" y1="1" x2="0.498" y2="0" xlink:href="#linear-gradient"/>
    <linearGradient id="linear-gradient-23" x1="0.511" y1="1.001" x2="0.511" y2="0" xlink:href="#linear-gradient"/>
    <linearGradient id="linear-gradient-24" x1="0.5" y1="1.001" x2="0.5" y2="0.006" xlink:href="#linear-gradient"/>
    <linearGradient id="linear-gradient-25" x1="0.5" y1="1" x2="0.5" y2="0" xlink:href="#linear-gradient"/>
    <linearGradient id="linear-gradient-26" x1="0.5" y1="0.984" x2="0.5" y2="0" xlink:href="#linear-gradient"/>
    <linearGradient id="linear-gradient-27" x1="0.5" y1="1" x2="0.5" y2="0" xlink:href="#linear-gradient"/>
    <linearGradient id="linear-gradient-28" x1="0.5" y1="1" x2="0.5" y2="0" xlink:href="#linear-gradient"/>
    <linearGradient id="linear-gradient-29" x1="0.497" y1="1" x2="0.497" y2="0" xlink:href="#linear-gradient"/>
    <linearGradient id="linear-gradient-30" x1="0.499" y1="1" x2="0.499" y2="0" xlink:href="#linear-gradient"/>
    <linearGradient id="linear-gradient-31" x1="0.5" y1="0.999" x2="0.5" y2="-0.001" xlink:href="#linear-gradient"/>
    <linearGradient id="linear-gradient-32" x1="0.501" y1="1" x2="0.501" y2="0" xlink:href="#linear-gradient"/>
    <linearGradient id="linear-gradient-33" x1="0.501" y1="1" x2="0.501" y2="0" xlink:href="#linear-gradient"/>
    <linearGradient id="linear-gradient-34" x1="0.5" y1="1.001" x2="0.5" y2="0" xlink:href="#linear-gradient"/>
    <linearGradient id="linear-gradient-35" x1="0.5" y1="1.001" x2="0.5" y2="0.001" xlink:href="#linear-gradient"/>
  </defs>
  <g id="undraw_setup_wizard_r6mr" transform="translate(0 -0.001)">
    <path id="Path_348" data-name="Path 348" d="M336.107,99.882c-27.341-.946-53.381-9.776-78.247-19.433s-49.495-20.371-76.181-25.47c-17.164-3.3-36.8-3.76-50.622,5.445-13.3,8.855-17.612,24.156-19.923,38.325-1.741,10.671-2.763,21.9,2,31.9,3.312,6.937,9.184,12.766,13.248,19.407,14.139,23.121,4.144,51.628-11.174,74.2-7.182,10.587-15.525,20.7-21.072,31.959s-8.111,24.185-3.257,35.685c4.808,11.406,16.269,19.957,28.685,25.977,25.216,12.23,54.919,15.728,83.9,17.713,64.141,4.385,128.62,2.488,192.93.583,23.8-.7,47.7-1.415,71.116-5.095,13-2.045,26.424-5.289,35.866-13.121,11.981-9.94,14.951-26.771,6.92-39.237-13.468-20.907-50.694-26.1-60.119-48.536-5.179-12.353.139-26.108,7.672-37.56,16.155-24.574,43.229-46.132,44.653-74.216.98-19.289-12.036-38.608-32.161-47.737C449.252,61.1,420,62.3,404.443,78.134,388.411,94.445,360.242,100.722,336.107,99.882Z" transform="translate(-80.156 -52.82)" fill="#fffffe" opacity="0.1"/>
    <rect id="Rectangle_248" data-name="Rectangle 248" width="109.631" height="109.631" transform="translate(0 52.165)" fill="#e8e9ed"/>
    <rect id="Rectangle_249" data-name="Rectangle 249" width="109.631" height="109.631" transform="translate(339.014 52.165)" fill="#e8e9ed"/>
    <path id="Path_349" data-name="Path 349" d="M196.232,83.215l-1.094-1.12a.228.228,0,0,0-.173-.076.22.22,0,0,0-.173.076l-7.562,7.6-2.754-2.75a.237.237,0,0,0-.346,0l-1.1,1.1a.245.245,0,0,0,0,.355l3.473,3.468a1.086,1.086,0,0,0,.722.355,1.149,1.149,0,0,0,.722-.342h0l8.293-8.318a.266.266,0,0,0,0-.355Z" transform="translate(-134.812 -69.684)" fill="#3acc6c" opacity="0.5"/>
    <path id="Path_350" data-name="Path 350" d="M181.117,65.326a11.149,11.149,0,1,1-7.891,3.266,11.149,11.149,0,0,1,7.891-3.266m0-1.736a12.889,12.889,0,1,0,9.122,3.775A12.9,12.9,0,0,0,181.117,63.59Z" transform="translate(-126.304 -59.04)" fill="#fffffe" opacity="0.5"/>
    <path id="Path_351" data-name="Path 351" d="M391.962,168.124l-1.377-1.411a.287.287,0,0,0-.215-.093.279.279,0,0,0-.22.093l-9.518,9.59-3.468-3.464a.3.3,0,0,0-.215-.093.3.3,0,0,0-.22.093l-1.39,1.39a.3.3,0,0,0,0,.444l4.368,4.36a1.369,1.369,0,0,0,.913.444,1.449,1.449,0,0,0,.9-.422h0l10.435-10.494a.334.334,0,0,0,0-.422Z" transform="translate(-245.87 -118.544)" fill="#3acc6c" opacity="0.8"/>
    <path id="Path_352" data-name="Path 352" d="M372.925,145.594a14.047,14.047,0,1,1-9.936,4.115,14.046,14.046,0,0,1,9.936-4.115m0-2.184a16.235,16.235,0,1,0,16.235,16.235,16.235,16.235,0,0,0-16.235-16.235Z" transform="translate(-235.155 -105.14)" fill="#fffffe" opacity="0.8"/>
    <path id="Path_353" data-name="Path 353" d="M983.607,65.326a11.149,11.149,0,1,1-7.891,3.266,11.148,11.148,0,0,1,7.891-3.266m0-1.736a12.889,12.889,0,1,0,9.122,3.775,12.9,12.9,0,0,0-9.122-3.775Z" transform="translate(-589.781 -59.04)" fill="#fffffe" opacity="0.5"/>
    <path id="Path_354" data-name="Path 354" d="M781.3,145.594a14.053,14.053,0,1,0,.021,0m0-2.184a16.267,16.267,0,1,1-.021,0Z" transform="translate(-471.025 -105.14)" fill="#fffffe" opacity="0.8"/>
    <path id="Path_355" data-name="Path 355" d="M568.985,205.61a18.563,18.563,0,1,1-13.138,5.437,18.562,18.562,0,0,1,13.138-5.437m0-2.89a21.465,21.465,0,1,0,21.465,21.465,21.465,21.465,0,0,0-21.465-21.465Z" transform="translate(-345.368 -139.394)" fill="#fffffe"/>
    <rect id="Rectangle_250" data-name="Rectangle 250" width="122.173" height="122.173" transform="translate(76.684 80.9)" fill="#f3f5f7"/>
    <rect id="Rectangle_251" data-name="Rectangle 251" width="122.173" height="122.173" transform="translate(249.192 80.9)" fill="#f3f5f7"/>
    <rect id="Rectangle_252" data-name="Rectangle 252" width="40.75" height="4.529" transform="translate(10.954 71.627)" opacity="0.1"/>
    <rect id="Rectangle_253" data-name="Rectangle 253" width="40.75" height="4.529" transform="translate(358.742 71.627)" opacity="0.1"/>
    <path id="Path_356" data-name="Path 356" d="M770.19,609.3s10.587-18.753,26.53-24.156a32.626,32.626,0,0,0,16.526-12.361A55.189,55.189,0,0,0,818.121,564" transform="translate(-473.971 -348.05)" fill="none" stroke="#535461" stroke-miterlimit="10" stroke-width="2"/>
    <path id="Path_357" data-name="Path 357" d="M893.328,545.063c-1.817,1.762-10.278,3.587-10.278,3.587s2.078-8.4,3.895-10.168a4.584,4.584,0,0,1,6.383,6.582Z" transform="translate(-539.153 -332.565)" fill="#fffffe"/>
    <path id="Path_358" data-name="Path 358" d="M881.611,579.425c-2.484.494-10.561-2.573-10.561-2.573s6.307-5.914,8.791-6.417a4.584,4.584,0,0,1,1.783,8.99Z" transform="translate(-532.222 -351.727)" fill="#fffffe"/>
    <path id="Path_359" data-name="Path 359" d="M844.1,618.632c-2.391-.845-7.828-7.562-7.828-7.562s8.449-1.931,10.827-1.1a4.585,4.585,0,0,1-3,8.665Z" transform="translate(-512.135 -374.48)" fill="#fffffe"/>
    <path id="Path_360" data-name="Path 360" d="M804.7,640.777c-2.5-.422-9-6.13-9-6.13s7.993-3.325,10.489-2.915a4.584,4.584,0,1,1-1.491,9.045Z" transform="translate(-488.704 -387.149)" fill="#fffffe"/>
    <path id="Path_361" data-name="Path 361" d="M854.308,563.919c0,2.535,4.579,9.873,4.579,9.873s4.579-7.338,4.579-9.869a4.584,4.584,0,0,0-9.167,0Z" transform="translate(-522.548 -345.359)" fill="#fffffe"/>
    <path id="Path_362" data-name="Path 362" d="M810.1,588.861c.756,2.416,7.325,8.052,7.325,8.052s2.18-8.373,1.424-10.789a4.584,4.584,0,1,0-8.749,2.737Z" transform="translate(-496.901 -358.97)" fill="#fffffe"/>
    <path id="Path_363" data-name="Path 363" d="M771.213,621.787c.338,2.509,5.855,9.171,5.855,9.171s3.566-7.883,3.232-10.392a4.584,4.584,0,0,0-9.087,1.221Z" transform="translate(-474.538 -378.425)" fill="#fffffe"/>
    <path id="Path_364" data-name="Path 364" d="M893.328,545.063c-1.817,1.762-10.278,3.587-10.278,3.587s2.078-8.4,3.895-10.168a4.584,4.584,0,0,1,6.383,6.582Z" transform="translate(-539.153 -332.565)" opacity="0.25"/>
    <path id="Path_365" data-name="Path 365" d="M881.611,579.425c-2.484.494-10.561-2.573-10.561-2.573s6.307-5.914,8.791-6.417a4.584,4.584,0,0,1,1.783,8.99Z" transform="translate(-532.222 -351.727)" opacity="0.25"/>
    <path id="Path_366" data-name="Path 366" d="M844.1,618.632c-2.391-.845-7.828-7.562-7.828-7.562s8.449-1.931,10.827-1.1a4.585,4.585,0,0,1-3,8.665Z" transform="translate(-512.135 -374.48)" opacity="0.25"/>
    <path id="Path_367" data-name="Path 367" d="M804.7,640.777c-2.5-.422-9-6.13-9-6.13s7.993-3.325,10.489-2.915a4.584,4.584,0,1,1-1.491,9.045Z" transform="translate(-488.704 -387.149)" opacity="0.25"/>
    <path id="Path_368" data-name="Path 368" d="M854.308,563.919c0,2.535,4.579,9.873,4.579,9.873s4.579-7.338,4.579-9.869a4.584,4.584,0,0,0-9.167,0Z" transform="translate(-522.548 -345.359)" opacity="0.25"/>
    <path id="Path_369" data-name="Path 369" d="M810.1,588.861c.756,2.416,7.325,8.052,7.325,8.052s2.18-8.373,1.424-10.789a4.584,4.584,0,1,0-8.749,2.737Z" transform="translate(-496.901 -358.97)" opacity="0.25"/>
    <path id="Path_370" data-name="Path 370" d="M771.213,621.787c.338,2.509,5.855,9.171,5.855,9.171s3.566-7.883,3.232-10.392a4.584,4.584,0,0,0-9.087,1.221Z" transform="translate(-474.538 -378.425)" opacity="0.25"/>
    <path id="Path_371" data-name="Path 371" d="M771.63,587.177s2.083-21.431,14.465-32.833a32.664,32.664,0,0,0,10.1-18.009,55.034,55.034,0,0,0,.9-10" transform="translate(-474.802 -326.3)" fill="none" stroke="#535461" stroke-miterlimit="10" stroke-width="2"/>
    <path id="Path_372" data-name="Path 372" d="M838.237,500.639c-.946,2.349-7.942,7.444-7.942,7.444s-1.508-8.521-.562-10.87a4.584,4.584,0,0,1,8.5,3.426Z" transform="translate(-508.18 -307.819)" fill="#fffffe"/>
    <path id="Path_373" data-name="Path 373" d="M839.869,535.459c-2.07,1.458-10.709,1.935-10.709,1.935s3.38-7.976,5.437-9.429a4.584,4.584,0,0,1,5.272,7.494Z" transform="translate(-508.029 -326.801)" fill="#fffffe"/>
    <path id="Path_374" data-name="Path 374" d="M818.609,586.551c-2.535.211-10.219-3.739-10.219-3.739s6.928-5.183,9.45-5.395a4.583,4.583,0,1,1,.769,9.134Z" transform="translate(-496.033 -355.79)" fill="#fffffe"/>
    <path id="Path_375" data-name="Path 375" d="M792.439,622.573c-2.454.634-10.709-1.96-10.709-1.96s5.957-6.278,8.407-6.916a4.583,4.583,0,1,1,2.3,8.872Z" transform="translate(-480.636 -376.667)" fill="#fffffe"/>
    <path id="Path_376" data-name="Path 376" d="M807.052,535.088c1.027,2.315,8.187,7.182,8.187,7.182s1.221-8.567.2-10.882a4.586,4.586,0,0,0-8.386,3.713Z" transform="translate(-495.033 -327.638)" fill="#fffffe"/>
    <path id="Path_377" data-name="Path 377" d="M776.732,575.777c1.69,1.9,9.961,4.393,9.961,4.393s-1.4-8.542-3.071-10.443a4.585,4.585,0,0,0-6.89,6.05Z" transform="translate(-477.091 -350.457)" fill="#fffffe"/>
    <path id="Path_378" data-name="Path 378" d="M754.52,621.652c1.322,2.159,9.07,6.016,9.07,6.016s.068-8.656-1.267-10.815a4.584,4.584,0,0,0-7.811,4.8Z" transform="translate(-464.524 -377.314)" fill="#fffffe"/>
    <rect id="Rectangle_254" data-name="Rectangle 254" width="40.75" height="4.529" transform="translate(92.454 106.978)" opacity="0.1"/>
    <rect id="Rectangle_255" data-name="Rectangle 255" width="24.329" height="4.529" transform="translate(167.545 146.786)" opacity="0.1"/>
    <rect id="Rectangle_256" data-name="Rectangle 256" width="36.027" height="4.529" transform="translate(167.545 177.177)" opacity="0.1"/>
    <rect id="Rectangle_257" data-name="Rectangle 257" width="40.75" height="4.529" transform="translate(92.454 122.938)" opacity="0.1"/>
    <rect id="Rectangle_258" data-name="Rectangle 258" width="40.75" height="4.529" transform="translate(275.828 106.978)" opacity="0.1"/>
    <rect id="Rectangle_259" data-name="Rectangle 259" width="40.75" height="4.529" transform="translate(275.828 122.938)" opacity="0.1"/>
    <path id="Path_379" data-name="Path 379" d="M584.66,250.219l1.141-1.5a5.914,5.914,0,0,0,4.106,1.69c1.926,0,3.354-.942,3.354-2.467,0-1.656-1.369-2.746-5.162-2.746v-1.719c3.38,0,4.647-1.111,4.647-2.577,0-1.327-1.136-2.155-2.822-2.155a5.433,5.433,0,0,0-3.532,1.445l-1.212-1.445a7.389,7.389,0,0,1,4.837-1.88c2.919,0,5.069,1.4,5.069,3.861,0,1.732-1.267,2.864-3.092,3.489v.093c1.956.422,3.6,1.719,3.6,3.743,0,2.67-2.535,4.271-5.526,4.271A7.328,7.328,0,0,1,584.66,250.219Z" transform="translate(-366.818 -159.117)" fill="#fffffe"/>
    <g id="Group_68" data-name="Group 68" transform="translate(304.474 47.391)" opacity="0.8">
      <path id="Path_380" data-name="Path 380" d="M796.882,169.782c0-.811.072-1.846.114-2.657h-.106c-.465.718-.993,1.432-1.466,2.146l-3.38,4.334h8.973v1.745H789.73v-1.479L796.468,165h2.48v14.106h-2.066Z" transform="translate(-789.73 -165)" fill="#fffffe"/>
    </g>
    <g id="Group_69" data-name="Group 69" transform="translate(389.438 12.906)" opacity="0.5">
      <path id="Path_381" data-name="Path 381" d="M990.85,92.381l.765-1.043a3.975,3.975,0,0,0,2.767,1.136,2.2,2.2,0,0,0,2.429-2.142c0-1.331-.942-2.049-2.34-2.049a3.578,3.578,0,0,0-1.994.587l-.794-.511L992,83.37h5.914v1.373H993.4l-.249,2.733A4.157,4.157,0,0,1,994.9,87.1c1.939,0,3.519,1,3.519,3.2a3.584,3.584,0,0,1-3.849,3.494,5.192,5.192,0,0,1-3.722-1.419Z" transform="translate(-990.85 -83.37)" fill="#fffffe"/>
    </g>
    <rect id="Rectangle_260" data-name="Rectangle 260" width="151.022" height="151.022" transform="translate(146.659 119.69)" fill="#fffffe" opacity="0.1"/>
    <rect id="Rectangle_261" data-name="Rectangle 261" width="151.022" height="151.022" transform="translate(151.728 112.508)" fill="#fff"/>
    <rect id="Rectangle_262" data-name="Rectangle 262" width="119.385" height="4.529" transform="translate(167.545 129.237)" fill="#fffffe" opacity="0.5"/>
    <rect id="Rectangle_263" data-name="Rectangle 263" width="76.02" height="4.529" transform="translate(167.545 161.981)" opacity="0.1"/>
    <rect id="Rectangle_264" data-name="Rectangle 264" width="73.76" height="4.529" transform="translate(167.545 192.377)" opacity="0.1"/>
    <rect id="Rectangle_265" data-name="Rectangle 265" width="100.548" height="4.529" transform="translate(167.545 207.572)" opacity="0.1"/>
    <path id="Path_382" data-name="Path 382" d="M687.866,436.42l-.52-.536a.127.127,0,0,0-.084-.034.114.114,0,0,0-.08.034l-3.6,3.633-1.314-1.314a.135.135,0,0,0-.084-.034.123.123,0,0,0-.08.034l-.528.528a.118.118,0,0,0,0,.169l1.656,1.652a.439.439,0,0,0,.689,0h0l3.95-3.967a.135.135,0,0,0,0-.169Z" transform="translate(-422.769 -274.038)" fill="#3acc6c" opacity="0.5"/>
    <path id="Path_383" data-name="Path 383" d="M680.661,427.874a5.323,5.323,0,1,1-3.76,1.559,5.323,5.323,0,0,1,3.76-1.559m0-.824a6.14,6.14,0,1,1,0,.008Z" transform="translate(-418.711 -268.955)" fill="#3acc6c" opacity="0.5"/>
    <path id="Path_384" data-name="Path 384" d="M687.866,508.366l-.52-.532a.109.109,0,0,0-.084-.034.1.1,0,0,0-.08.034l-3.6,3.629-1.314-1.31a.118.118,0,0,0-.084-.038.11.11,0,0,0-.08.038l-.528.524a.118.118,0,0,0,0,.169l1.656,1.656a.528.528,0,0,0,.346.169.553.553,0,0,0,.342-.165h0l3.95-3.971a.135.135,0,0,0,0-.169Z" transform="translate(-422.769 -315.592)" fill="#3acc6c" opacity="0.5"/>
    <path id="Path_385" data-name="Path 385" d="M680.661,499.845a5.323,5.323,0,1,1-3.76,1.559,5.323,5.323,0,0,1,3.76-1.559m0-.845a6.147,6.147,0,1,0,6.142,6.145A6.147,6.147,0,0,0,680.661,499Z" transform="translate(-418.711 -310.51)" fill="#3acc6c" opacity="0.5"/>
    <ellipse id="Ellipse_54" data-name="Ellipse 54" cx="30.167" cy="5.061" rx="30.167" ry="5.061" transform="translate(186.344 325.458)" fill="#fffffe" opacity="0.1"/>
    <path id="Path_386" data-name="Path 386" d="M193.99,746.19s1.572,2.057-.727,5.167-4.2,5.728-3.43,7.668c0,0,3.468-5.771,6.295-5.851S197.095,749.663,193.99,746.19Z" transform="translate(-138.686 -453.274)" fill="#fffffe"/>
    <path id="Path_387" data-name="Path 387" d="M194.111,746.19a2.572,2.572,0,0,1,.321.646c2.754,3.24,4.225,6.261,1.576,6.337-2.467.072-5.429,4.482-6.138,5.6a1.98,1.98,0,0,0,.084.253s3.468-5.771,6.295-5.851S197.216,749.663,194.111,746.19Z" transform="translate(-138.808 -453.274)" opacity="0.1"/>
    <path id="Path_388" data-name="Path 388" d="M206.333,751.764c0,.727-.08,1.314-.182,1.314s-.182-.587-.182-1.314.1-.384.2-.384S206.333,751.042,206.333,751.764Z" transform="translate(-148.107 -456.225)" fill="#ffd037"/>
    <path id="Path_389" data-name="Path 389" d="M207.513,753.757c-.638.346-1.191.558-1.238.469s.422-.422,1.065-.79.384-.093.422,0S208.147,753.41,207.513,753.757Z" transform="translate(-148.281 -457.351)" fill="#ffd037"/>
    <path id="Path_390" data-name="Path 390" d="M175.4,746.19s-1.576,2.057.727,5.167,4.195,5.728,3.43,7.668c0,0-3.473-5.771-6.295-5.851S172.295,749.663,175.4,746.19Z" transform="translate(-128.414 -453.274)" fill="#fffffe"/>
    <path id="Path_391" data-name="Path 391" d="M175.4,746.19a2.572,2.572,0,0,0-.321.646c-2.759,3.24-4.225,6.261-1.576,6.337,2.467.072,5.429,4.482,6.138,5.6-.025.084-.051.169-.084.253,0,0-3.473-5.771-6.295-5.851S172.295,749.663,175.4,746.19Z" transform="translate(-128.414 -453.274)" opacity="0.1"/>
    <path id="Path_392" data-name="Path 392" d="M173.3,751.764c0,.727.08,1.314.182,1.314s.182-.587.182-1.314-.1-.384-.2-.384S173.3,751.042,173.3,751.764Z" transform="translate(-129.238 -456.225)" fill="#ffd037"/>
    <path id="Path_393" data-name="Path 393" d="M170.411,753.757c.634.346,1.187.558,1.238.469s-.422-.422-1.065-.79-.384-.093-.422,0S169.773,753.41,170.411,753.757Z" transform="translate(-127.351 -457.351)" fill="#ffd037"/>
    <ellipse id="Ellipse_55" data-name="Ellipse 55" cx="16.455" cy="2.526" rx="16.455" ry="2.526" transform="translate(34.692 316.443)" fill="#fffffe" opacity="0.1"/>
    <path id="Path_394" data-name="Path 394" d="M186.944,768.689l-.08.646-.11.9-.046.38-.11.908-.046.38-.114.9-1.267,10.325c-.11.921-1.618,1.639-3.435,1.639H175.2c-1.817,0-3.32-.718-3.43-1.639L170.5,772.812l-.11-.9-.046-.38-.11-.908-.046-.38-.11-.9-.085-.646c-.063-.52.752-.959,1.779-.959h13.383C186.192,767.73,187.007,768.169,186.944,768.689Z" transform="translate(-127.328 -465.714)" fill="#65617d"/>
    <path id="Path_395" data-name="Path 395" d="M117.984,718.7l-.11.908h-16.56l-.114-.908Z" transform="translate(-58.448 -415.083)" fill="#9d9cb5"/>
    <path id="Path_396" data-name="Path 396" d="M118.047,721.75l-.11.908H101.69l-.11-.908Z" transform="translate(-58.667 -416.845)" fill="#9d9cb5"/>
    <path id="Path_397" data-name="Path 397" d="M118.1,724.79l-.114.908H102.06l-.11-.908Z" transform="translate(-58.881 -418.6)" fill="#9d9cb5"/>
    <path id="Path_398" data-name="Path 398" d="M585.112,470.141c-.283-.579-2.535-8.027-2.535-8.027L578.239,451.1s-2.632-14.494-6.561-10.878,2.112,12.293,2.112,12.293,2.48,6.337,2.353,7.6,1.381,5.914,1.381,5.914l-.49,2.67c-.638-.042-1.052-.042-1.052-.042s-.389.558-.76.6a.35.35,0,0,1-.186-.025,10.338,10.338,0,0,0-2.535-.152,5.678,5.678,0,0,1-1.9-.608c-.245-.49-1.631-.781-2.86-.946-.934-2.323-2.247-4.584-2.429-7.008a3.029,3.029,0,0,1,.372-1.909,2.393,2.393,0,0,1,.279-.346c.342-.346.76-.651,1.141-.972.19-.161.363-.325.528-.494,3.223-3.126,2.712-7.967-.211-11.317-3.38-3.874-18.622-12.209-23.235-5.069a8.063,8.063,0,0,0-.845,3.257,13.578,13.578,0,0,1-3.642,7.182c-1.529,1.626-3.536,3.126-4.415,4.968l-.03-.068a4.92,4.92,0,0,0-.456,1.267c-.444,2.243,1.069,4.4,1.863,6.586a11.825,11.825,0,0,1,.583,2.29l.051-.482a14.877,14.877,0,0,1,.2,3.38c-5.534,1.132-5.538,10.671-5.538,10.671a33.126,33.126,0,0,0-.566,5.158c.114,1.356.114,4.322.114,5.044s-.684,5.158-.76,5.69c-.1.587-1.136,3.4,1.373,4.034.173.046.359.084.549.118.106,2.277.3,7.055.131,8.111,0,0,.913,6.413,1.669,8.027a19.041,19.041,0,0,0,1.69,2.725,2.956,2.956,0,0,1-.384,1.1c-.384.562-.186,1.022.46,1.221q-.03.292-.076.659c-.275,2.476-.689,7.389,0,9.881a25.1,25.1,0,0,1,1.022,4.55,3.38,3.38,0,0,0,.4,1.593c.422.57,1.141,5.859,1.141,6.713s1.935,8.534,1.365,10.354a11.158,11.158,0,0,0-.114,4.381,37.721,37.721,0,0,1-.739,5.462c-.4.967-.57,16.556.055,20.595s1.027,7.4,1.027,7.4-.422,3.7-.059,4.224.967,3.587.511,3.756-.68,1.424-.68,1.424a12.506,12.506,0,0,0,.777,1.06,4.3,4.3,0,0,1-.515-.22c.182.258.452.613.782,1l-.308,4.089a.685.685,0,0,0,.507.718,5.678,5.678,0,0,0,5.652-1.6c2.843-2.9,3.8-2.5,4.326-4.267.051-.19.1-.372.139-.549a1.846,1.846,0,0,0-2.615-2.07,13.421,13.421,0,0,0,.186-3.456,51.86,51.86,0,0,1-.228-5.974l-.4-20.7a28.229,28.229,0,0,1,1.593-5.686c.853-1.593.739-7.182.739-7.182l.967-18.322.963-8.872s.908-3.071,2.045.342c0,0-.625,6.882-.338,8.534a76.151,76.151,0,0,1,.4,11.436c-.283,1.766-1.538,11.436-.739,13.882s1.648,5.4,1.479,6.371-.739,21.967-.739,21.967,1.533,4.039.4,5.348-.055,6.544-.055,6.544.135.1.372.237l-.034.422-.355,4.706a.689.689,0,0,0,.507.718,5.686,5.686,0,0,0,5.652-1.6c2.843-2.9,3.8-2.505,4.326-4.267.051-.19.1-.376.144-.553a1.85,1.85,0,0,0-2.982-1.838.394.394,0,0,1-.063.055c-.072.063-.148.118-.224.173l-.11.072a15.794,15.794,0,0,0,.5-4.567,35.248,35.248,0,0,1,.283-6.2s1.652-5.576,1.69-7.794.456-17.743.456-17.743-.055-7.224.173-8.986,2.045-17.012,3.865-21.545c1.4-3.489,2.024-12.382,1.652-16.9-.021-.228-.042-.422-.063-.642a6.764,6.764,0,0,0,2.463-4.427s-2.049-3.946-4.022-5.614a7.673,7.673,0,0,1-2.353-5.766,3,3,0,0,0-.68-2.045s-.912-2.957-1.521-3.261a.423.423,0,0,1-.131-.1c-.422-.448-.1-1.719-.1-1.719v-.038a10.491,10.491,0,0,0,.368-2.7,19.435,19.435,0,0,1,.076-3.033,24.454,24.454,0,0,0,1.217-7.735,2.66,2.66,0,0,1,2.957-3.113l9.839-.1h1.12a8.247,8.247,0,0,0,1.267-1.356,2.712,2.712,0,0,0,2.176-.532C585.653,474.374,585.395,470.728,585.112,470.141Zm-45.756,29.572.072-1.732.384.33a2.77,2.77,0,0,1,0,1.386,1.479,1.479,0,0,1-.845.963.94.94,0,0,0-.139.085l-.1-.989c.4-.025.625-.047.625-.047Z" transform="translate(-335.51 -275.056)" opacity="0.1"/>
    <path id="Path_399" data-name="Path 399" d="M631.1,474.375s5.6,3.6,7.722,1.69,1.859-5.606,1.572-6.189-2.568-8.082-2.568-8.082l-4.406-11.1s-2.678-14.613-6.675-10.984S628.9,452.1,628.9,452.1s2.535,6.392,2.391,7.672,1.4,5.969,1.4,5.969Z" transform="translate(-390.345 -275.932)" fill="url(#linear-gradient)"/>
    <path id="Path_400" data-name="Path 400" d="M599.4,827.618c-.042.182-.089.367-.148.558-.52,1.779-1.5,1.377-4.393,4.3a5.8,5.8,0,0,1-5.745,1.614.693.693,0,0,1-.515-.722l.363-4.744.173-2.285s4.6,1.293,6.945-.342c.076-.055.152-.11.224-.173l.068-.055a1.88,1.88,0,0,1,3.029,1.85Z" transform="translate(-369.091 -498.988)" fill="url(#linear-gradient-2)"/>
    <path id="Path_401" data-name="Path 401" d="M565.234,823.375c-.038.182-.089.368-.144.558-.52,1.779-1.5,1.377-4.394,4.3a5.817,5.817,0,0,1-5.745,1.618.689.689,0,0,1-.515-.727l.359-4.744.177-2.286s4.6,1.293,6.941-.342c.08-.055.152-.11.228-.173l.068-.055a1.876,1.876,0,0,1,3.025,1.85Z" transform="translate(-349.361 -496.536)" fill="url(#linear-gradient-3)"/>
    <g id="Group_70" data-name="Group 70" transform="translate(204.581 327.456)" opacity="0.1">
      <path id="Path_402" data-name="Path 402" d="M559.8,828.047l.19,2.463c-2.645,2.619-5.788-1.267-6.717-2.56C555.691,829.192,559.8,828.047,559.8,828.047Z" transform="translate(-553.27 -827.95)" fill="url(#linear-gradient-4)"/>
    </g>
    <g id="Group_71" data-name="Group 71" transform="translate(219.869 327.008)" opacity="0.1">
      <path id="Path_403" data-name="Path 403" d="M596.223,828.436l.351-.228c-2.416,3.642-6,1.96-7.114,1.31l.173-2.286s4.6,1.293,6.945-.342C596.392,827.781,596.223,828.436,596.223,828.436Z" transform="translate(-589.46 -826.89)" fill="url(#linear-gradient-5)"/>
    </g>
    <path id="Path_404" data-name="Path 404" d="M576.289,640.408c-1.85,4.588-3.7,19.961-3.933,21.739s-.173,9.062-.173,9.062l-.482,17.9c-.055,2.239-1.732,7.858-1.732,7.858a35.229,35.229,0,0,0-.292,6.252c.287,1.546-.752,5.623-.752,5.623l.351-.228c-2.894,4.355-7.461,1.086-7.461,1.086s-1.1-5.276.055-6.594-.4-5.391-.4-5.391.575-21.165.752-22.141-.659-3.958-1.5-6.426.461-12.217.752-14a74.119,74.119,0,0,0-.422-11.529c-.3-1.664.346-8.605.346-8.605-1.158-3.439-2.083-.342-2.083-.342l-.925,9.007-.951,18.491s.118,5.619-.752,7.224a28.074,28.074,0,0,0-1.618,5.737l.422,20.878a51.07,51.07,0,0,0,.232,6.024c.291,1.664-.638,5.965-.638,5.965-3.236,7.57-8.449-.629-8.449-.629s.228-1.267.693-1.436-.173-3.27-.52-3.8.055-4.225.055-4.225-.4-3.38-1.039-7.46-.461-19.788-.059-20.764a37.924,37.924,0,0,0,.752-5.492,11.21,11.21,0,0,1,.118-4.419c.579-1.838-1.39-9.577-1.39-10.439s-.752-6.193-1.158-6.759a3.38,3.38,0,0,1-.422-1.605,25.368,25.368,0,0,0-1.043-4.588c-.718-2.535-.3-7.469,0-9.961.1-.925.186-1.512.186-1.512s33.192-5.336,34.523-4.127a5.184,5.184,0,0,1,.638,2.645C578.342,627.924,577.7,636.893,576.289,640.408Z" transform="translate(-342.309 -380.739)" fill="url(#linear-gradient-6)"/>
    <g id="Group_72" data-name="Group 72" transform="translate(221.428 285.367)" opacity="0.1">
      <path id="Path_405" data-name="Path 405" d="M593.15,728.413a30.941,30.941,0,0,0,5.167.038C599.681,728.181,593.15,728.413,593.15,728.413Z" transform="translate(-593.15 -728.32)" fill="url(#linear-gradient-7)"/>
    </g>
    <g id="Group_73" data-name="Group 73" transform="translate(221.699 287.601)" opacity="0.1">
      <path id="Path_406" data-name="Path 406" d="M593.79,733.609s5.069.879,5.323.422S593.79,733.609,593.79,733.609Z" transform="translate(-593.79 -733.609)" fill="url(#linear-gradient-8)"/>
    </g>
    <g id="Group_74" data-name="Group 74" transform="translate(206.241 286.685)" opacity="0.1">
      <path id="Path_407" data-name="Path 407" d="M557.2,731.44a14.031,14.031,0,0,1,4.047.765C562.675,732.855,557.2,731.44,557.2,731.44Z" transform="translate(-557.2 -731.44)" fill="url(#linear-gradient-9)"/>
    </g>
    <path id="Path_408" data-name="Path 408" d="M534.66,579.08s.422,7.993.194,9.4c0,0,.925,6.464,1.69,8.107a23.28,23.28,0,0,0,2.429,3.709l2.273-15.867L540.718,579Z" transform="translate(-337.941 -356.714)" fill="url(#linear-gradient-10)"/>
    <ellipse id="Ellipse_56" data-name="Ellipse 56" cx="8.905" cy="8.833" rx="8.905" ry="8.833" transform="translate(211.716 168.293)" fill="url(#linear-gradient-11)"/>
    <path id="Path_409" data-name="Path 409" d="M572.33,481.471s-2.776,5.391-5.551,7.917,16.653,5.391,17.114,5.391-3.468-11.47-2.776-12.847S572.33,481.471,572.33,481.471Z" transform="translate(-356.335 -300.213)" fill="url(#linear-gradient-12)"/>
    <g id="Group_75" data-name="Group 75" transform="translate(200.31 239.826)" opacity="0.1">
      <path id="Path_410" data-name="Path 410" d="M578.507,623.333a5.772,5.772,0,0,1-1.428.794c-3.544,1.377-7.4,3.291-10.025,2.535s-8.17,0-8.17,0-11.182-.921-13.417-.384a4.334,4.334,0,0,1-2.307.059c.1-.925.186-1.512.186-1.512s33.192-5.336,34.523-4.127A5.072,5.072,0,0,1,578.507,623.333Z" transform="translate(-543.16 -620.518)" fill="url(#linear-gradient-13)"/>
    </g>
    <path id="Path_411" data-name="Path 411" d="M575.154,546.761a6.447,6.447,0,0,1-3.857,5.2c-3.549,1.4-7.4,3.291-10.025,2.535s-8.17,0-8.17,0-11.182-.921-13.417-.384-3.38-.152-2.7-1.149.621-4.279.621-5.657-.773-6.962-.08-7.955,1.31-4.816,2.7-5.429a1.5,1.5,0,0,0,.866-.972,2.734,2.734,0,0,0,0-1.4s-.232-.19-.558-.477c-.815-.722-2.2-2.066-1.757-2.505.617-.613,0-4.592,0-4.592s-1.466-3.059-.925-4.2-4.7-7.182-4.7-7.182,0-10.4,6.337-10.861c0,0,4.47.156,5.01-1.833s4.085-3.139,4.085-3.139l8.094,1.762s7.182,1.529,8.483.613,2.315,1.221,2.315,1.221,4.47.232,4.934,1.149-1.466,9.864-1.466,9.864a2.7,2.7,0,0,0-3.008,3.139,24.489,24.489,0,0,1-1.234,7.8,18.165,18.165,0,0,0-.076,3.059,9.788,9.788,0,0,1-.376,2.716v.038s-.321,1.267.1,1.736a.629.629,0,0,0,.135.1c.617.3,1.542,3.287,1.542,3.287a3.012,3.012,0,0,1,.7,2.066,7.714,7.714,0,0,0,2.387,5.813C573.11,542.807,575.154,546.761,575.154,546.761Z" transform="translate(-337.069 -309.216)" fill="url(#linear-gradient-14)"/>
    <path id="Path_412" data-name="Path 412" d="M538.627,549.894v.325l-.144,3.578a30.1,30.1,0,0,1-7.325-.27c-2.585-.651-1.491-3.477-1.39-4.068h0c.076-.536.769-5.01.769-5.737s0-3.709-.114-5.069a33.368,33.368,0,0,1,.579-5.2l.5-.613,5.437,2.066Z" transform="translate(-334.933 -330.054)" fill="url(#linear-gradient-15)"/>
    <g id="Group_76" data-name="Group 76" transform="translate(194.511 219.414)" opacity="0.1">
      <path id="Path_413" data-name="Path 413" d="M538.607,572.96l-.144,3.578a30.108,30.108,0,0,1-7.325-.27c-2.585-.651-1.491-3.477-1.39-4.068Z" transform="translate(-529.432 -572.2)" fill="url(#linear-gradient-16)"/>
    </g>
    <g id="Group_77" data-name="Group 77" transform="translate(203.487 218.848)" opacity="0.1">
      <path id="Path_414" data-name="Path 414" d="M551.238,575.739a2.734,2.734,0,0,0,0-1.4s-.232-.19-.558-.477c4.085-.562,20.252-2.767,25.7-3v.038s-.321,1.267.1,1.736Z" transform="translate(-550.68 -570.86)" fill="url(#linear-gradient-17)"/>
    </g>
    <g id="Group_78" data-name="Group 78" transform="translate(227.022 226.511)" opacity="0.1">
      <path id="Path_415" data-name="Path 415" d="M609.127,589s1,5.623-2.737,7.6A17.085,17.085,0,0,0,609.127,589Z" transform="translate(-606.39 -589)" fill="url(#linear-gradient-18)"/>
    </g>
    <g id="Group_79" data-name="Group 79" transform="translate(205.278 233.463)" opacity="0.1">
      <path id="Path_416" data-name="Path 416" d="M554.92,606.253s9.019-1.529,10.794-.346S554.92,606.253,554.92,606.253Z" transform="translate(-554.92 -605.458)" fill="url(#linear-gradient-19)"/>
    </g>
    <g id="Group_80" data-name="Group 80" transform="translate(225.9 199.423)" opacity="0.1">
      <path id="Path_417" data-name="Path 417" d="M604.468,524.88s-1.386,5.657-.346,6.958S604.468,524.88,604.468,524.88Z" transform="translate(-603.735 -524.88)" fill="url(#linear-gradient-20)"/>
    </g>
    <g id="Group_81" data-name="Group 81" transform="translate(200.453 194.793)" opacity="0.1">
      <path id="Path_418" data-name="Path 418" d="M543.541,513.92a5.577,5.577,0,0,1,.5,4.284C543.279,520.375,543.541,513.92,543.541,513.92Z" transform="translate(-543.497 -513.92)" fill="url(#linear-gradient-21)"/>
    </g>
    <path id="Path_419" data-name="Path 419" d="M537.4,557.55s1.618.959,1.077,2.45S537.4,557.55,537.4,557.55Z" transform="translate(-339.523 -344.325)" fill="url(#linear-gradient-22)"/>
    <g id="Group_82" data-name="Group 82" transform="translate(197.708 208.865)" opacity="0.1">
      <path id="Path_420" data-name="Path 420" d="M537,547.23s1.5.807,1.69,1.99S537,547.23,537,547.23Z" transform="translate(-537 -547.23)" fill="url(#linear-gradient-23)"/>
    </g>
    <g id="Group_83" data-name="Group 83" transform="translate(220.005 253.332)" opacity="0.1">
      <path id="Path_421" data-name="Path 421" d="M589.78,653.757s9.446.959,11.334-1.267C601.114,652.5,592.594,654.18,589.78,653.757Z" transform="translate(-589.78 -652.49)" fill="url(#linear-gradient-24)"/>
    </g>
    <g id="Group_84" data-name="Group 84" transform="translate(203.698 254.068)" opacity="0.1">
      <path id="Path_422" data-name="Path 422" d="M551.18,654.23s10.139,2.37,12.141.494C563.321,654.724,554.61,655.375,551.18,654.23Z" transform="translate(-551.18 -654.23)" fill="url(#linear-gradient-25)"/>
    </g>
    <g id="Group_85" data-name="Group 85" transform="translate(220.736 257.701)" opacity="0.1">
      <path id="Path_423" data-name="Path 423" d="M591.51,662.83s4.224,0,6.206.114S591.51,662.83,591.51,662.83Z" transform="translate(-591.51 -662.83)" fill="url(#linear-gradient-26)"/>
    </g>
    <g id="Group_86" data-name="Group 86" transform="translate(204.391 259.496)" opacity="0.1">
      <path id="Path_424" data-name="Path 424" d="M552.82,667.08s2.083,2.332,4.432,1.914S552.82,667.08,552.82,667.08Z" transform="translate(-552.82 -667.08)" fill="url(#linear-gradient-27)"/>
    </g>
    <path id="Path_425" data-name="Path 425" d="M549.521,437.137a7.786,7.786,0,0,0-.845,3.282,13.653,13.653,0,0,1-3.7,7.262c-1.85,1.952-4.389,3.718-4.867,6.1-.452,2.264,1.086,4.44,1.893,6.641,2.112,5.809-.845,11.9-1.711,17.891-.237,1.656.051,3.773,2.112,4.322a12.177,12.177,0,0,1,1.952.422,2.326,2.326,0,0,1,1.157,1.821,27.741,27.741,0,0,1,.528,7.49c-.093,1.411-.194,3.029,1.145,4a6.814,6.814,0,0,0,2.222.879c2.112.566,4.846,1.018,6.269-.3.6-.553.845-1.339,1.567-1.779,1.115-.655,2.7-.211,4.106-.144a7.456,7.456,0,0,0,6.679-3.557,9.462,9.462,0,0,0,.617-6.535,40.629,40.629,0,0,1-1.2-6.565,3.8,3.8,0,0,1,.5-2.226c.845-1.318,2.86-1.918,4.225-2.957,2.56-1.943,2.535-5.129,1.622-7.794s-2.6-5.213-2.809-7.967a3.025,3.025,0,0,1,.38-1.926,7.513,7.513,0,0,1,1.555-1.445c3.739-3.13,3.3-8.276.207-11.795C569.689,438.333,554.189,429.926,549.521,437.137Z" transform="translate(-341.041 -273.149)" fill="url(#linear-gradient-28)"/>
    <g id="Group_87" data-name="Group 87" transform="translate(198.871 173.007)" opacity="0.1">
      <path id="Path_426" data-name="Path 426" d="M542.317,487.833a14.393,14.393,0,0,0-.587-6.894c-.422-1.111-1-2.218-1.428-3.329a4.726,4.726,0,0,0-.465,1.267c-.456,2.26,1.086,4.436,1.893,6.641A12.012,12.012,0,0,1,542.317,487.833Z" transform="translate(-539.754 -471.163)" fill="url(#linear-gradient-29)"/>
      <path id="Path_427" data-name="Path 427" d="M546.048,545.782a27.59,27.59,0,0,0-.532-7.49,2.332,2.332,0,0,0-1.153-1.821,11.463,11.463,0,0,0-1.956-.422,2.666,2.666,0,0,1-1.8-1.479c-.114.583-.22,1.166-.3,1.745-.241,1.656.046,3.772,2.112,4.322a12.343,12.343,0,0,1,1.956.422,2.332,2.332,0,0,1,1.153,1.821,27.514,27.514,0,0,1,.5,3.46C546.014,546.158,546.048,545.968,546.048,545.782Z" transform="translate(-540.029 -504.061)" fill="url(#linear-gradient-30)"/>
      <path id="Path_428" data-name="Path 428" d="M575.878,556.69a7.452,7.452,0,0,1-6.675,3.557c-1.407-.068-2.991-.511-4.106.144-.744.422-.972,1.225-1.567,1.779-1.424,1.322-4.157.87-6.269.3a6.758,6.758,0,0,1-2.222-.879,2.729,2.729,0,0,1-1.094-1.766c0,.786,0,1.576-.051,2.362-.093,1.407-.194,3.025,1.145,3.992a6.759,6.759,0,0,0,2.222.879c2.112.57,4.846,1.018,6.269-.3.6-.553.845-1.335,1.567-1.774,1.115-.659,2.7-.215,4.106-.144a7.444,7.444,0,0,0,6.675-3.561,9.236,9.236,0,0,0,.667-6.278A6.841,6.841,0,0,1,575.878,556.69Z" transform="translate(-547.892 -515.86)" fill="url(#linear-gradient-31)"/>
      <path id="Path_429" data-name="Path 429" d="M614.906,465.751a7.539,7.539,0,0,0-1.559,1.445,3.029,3.029,0,0,0-.376,1.926,9.958,9.958,0,0,0,.528,2.454,10.559,10.559,0,0,1,1.407-1.238,7.38,7.38,0,0,0,2.323-7.989A7.338,7.338,0,0,1,614.906,465.751Z" transform="translate(-582.024 -462.35)" fill="url(#linear-gradient-32)"/>
      <path id="Path_430" data-name="Path 430" d="M609.344,512.271c-1.369,1.035-3.38,1.635-4.225,2.957a3.773,3.773,0,0,0-.5,2.226,15.339,15.339,0,0,0,.329,2.661,3.026,3.026,0,0,1,.169-.3c.845-1.314,2.856-1.918,4.225-2.957,2.336-1.774,2.535-4.584,1.842-7.089a5.353,5.353,0,0,1-1.842,2.5Z" transform="translate(-577.209 -489.737)" fill="url(#linear-gradient-33)"/>
    </g>
    <path id="Path_431" data-name="Path 431" d="M635.722,512.1a13.522,13.522,0,0,1-3.625,5.543h-1.136l-10,.1-1.158-3.135,1.622-6.759,1,.063a5.787,5.787,0,0,0,1.926.613,10.68,10.68,0,0,1,2.581.152.333.333,0,0,0,.19.025c.376-.038.777-.6.777-.6S637.3,508.12,635.722,512.1Z" transform="translate(-387.113 -315.621)" fill="url(#linear-gradient-34)"/>
    <g id="Group_88" data-name="Group 88" transform="translate(240.008 192.449)" opacity="0.1">
      <path id="Path_432" data-name="Path 432" d="M645.731,512.4a13.522,13.522,0,0,1-3.625,5.543H640.97a52.432,52.432,0,0,1,2.332-5.555c.49-.744-3.722-2.467-6.172-3.418.376-.038.777-.6.777-.6S647.311,508.421,645.731,512.4Z" transform="translate(-637.13 -508.37)" fill="url(#linear-gradient-35)"/>
    </g>
    <path id="Path_433" data-name="Path 433" d="M630.528,477.39s5.492,3.574,7.6,1.664,1.829-5.559,1.546-6.138-2.535-8.027-2.535-8.027l-4.339-11.013s-2.632-14.494-6.561-10.878,2.112,12.293,2.112,12.293,2.48,6.337,2.353,7.6,1.381,5.914,1.381,5.914Z" transform="translate(-390.069 -277.831)" fill="#efb7b9"/>
    <path id="Path_434" data-name="Path 434" d="M599.336,827.768c-.042.177-.093.363-.144.553-.515,1.762-1.483,1.365-4.326,4.267a5.686,5.686,0,0,1-5.652,1.6.689.689,0,0,1-.507-.718l.355-4.706.173-2.264s4.529,1.267,6.831-.342c.076-.055.152-.11.224-.173a.394.394,0,0,0,.063-.055,1.85,1.85,0,0,1,2.982,1.838Z" transform="translate(-369.154 -499.083)" fill="#fffffe"/>
    <path id="Path_435" data-name="Path 435" d="M565.691,823.567c-.038.177-.089.359-.139.549-.515,1.766-1.483,1.365-4.326,4.267a5.678,5.678,0,0,1-5.652,1.6.684.684,0,0,1-.507-.718l.355-4.706.173-2.264s4.529,1.267,6.831-.342a2.61,2.61,0,0,0,.224-.169l.063-.059a1.85,1.85,0,0,1,2.978,1.842Z" transform="translate(-349.725 -496.656)" fill="#fffffe"/>
    <path id="Path_436" data-name="Path 436" d="M560.371,828.209l.186,2.446c-2.6,2.594-5.695-1.267-6.607-2.535C556.341,829.337,560.371,828.209,560.371,828.209Z" transform="translate(-349.082 -500.592)" opacity="0.1"/>
    <path id="Path_437" data-name="Path 437" d="M596.208,828.583l.342-.224c-2.374,3.608-5.914,1.943-7,1.3l.173-2.264s4.529,1.267,6.831-.342C596.373,827.933,596.208,828.583,596.208,828.583Z" transform="translate(-369.642 -499.974)" opacity="0.1"/>
    <path id="Path_438" data-name="Path 438" d="M576.622,642.013c-1.821,4.55-3.641,19.8-3.865,21.545s-.173,8.986-.173,8.986l-.456,17.743c-.055,2.218-1.69,7.794-1.69,7.794a35.143,35.143,0,0,0-.283,6.2c.283,1.555-.739,5.576-.739,5.576l.342-.228c-2.843,4.322-7.338,1.081-7.338,1.081s-1.081-5.234.055-6.544-.4-5.348-.4-5.348.57-20.992.739-21.968-.684-3.925-1.479-6.371.456-12.12.739-13.882a76.7,76.7,0,0,0-.4-11.436c-.283-1.648.338-8.534.338-8.534-1.136-3.413-2.045-.342-2.045-.342l-.912,8.931-.984,18.339s.114,5.572-.739,7.182a28.365,28.365,0,0,0-1.588,5.669l.4,20.7a51.863,51.863,0,0,0,.228,5.973c.283,1.648-.625,5.914-.625,5.914-3.185,7.507-8.305-.625-8.305-.625s.228-1.267.68-1.424-.169-3.244-.511-3.756.059-4.224.059-4.224-.422-3.359-1.027-7.4-.452-19.627-.055-20.594a37.72,37.72,0,0,0,.739-5.462,11.157,11.157,0,0,1,.114-4.381c.57-1.821-1.365-9.5-1.365-10.354s-.739-6.142-1.141-6.713a3.381,3.381,0,0,1-.4-1.593,25.11,25.11,0,0,0-1.022-4.55c-.706-2.492-.291-7.406,0-9.881.1-.917.186-1.5.186-1.5s32.656-5.289,33.965-4.094a5.238,5.238,0,0,1,.625,2.623C578.645,629.61,578.02,638.5,576.622,642.013Z" transform="translate(-342.833 -381.706)" fill="#444053"/>
    <path id="Path_439" data-name="Path 439" d="M593.19,729.376a30.308,30.308,0,0,0,5.069.038C599.573,729.148,593.19,729.376,593.19,729.376Z" transform="translate(-371.745 -443.51)" opacity="0.1"/>
    <path id="Path_440" data-name="Path 440" d="M593.82,734.53s4.968.874,5.234.422S593.82,734.53,593.82,734.53Z" transform="translate(-372.109 -446.539)" opacity="0.1"/>
    <path id="Path_441" data-name="Path 441" d="M557.82,732.38a13.762,13.762,0,0,1,3.979.756C563.2,733.778,557.82,732.38,557.82,732.38Z" transform="translate(-351.317 -445.298)" opacity="0.1"/>
    <path id="Path_442" data-name="Path 442" d="M535.64,581.266s.422,7.925.19,9.328c0,0,.912,6.413,1.669,8.027a23.259,23.259,0,0,0,2.391,3.68l2.239-15.724-.528-5.386Z" transform="translate(-338.507 -357.978)" fill="#efb7b9"/>
    <circle id="Ellipse_57" data-name="Ellipse 57" cx="8.762" cy="8.762" r="8.762" transform="translate(211.889 169.657)" fill="#efb7b9"/>
    <path id="Path_443" data-name="Path 443" d="M572.7,484.452s-2.729,5.344-5.462,7.849,16.387,5.348,16.843,5.348-3.413-11.381-2.733-12.745S572.7,484.452,572.7,484.452Z" transform="translate(-356.6 -301.935)" fill="#efb7b9"/>
    <path id="Path_444" data-name="Path 444" d="M578.776,625.156a5.728,5.728,0,0,1-1.4.79c-3.489,1.364-7.283,3.261-9.864,2.5s-8.027,0-8.027,0-10.984-.908-13.2-.38a4.254,4.254,0,0,1-2.285.047c.1-.917.186-1.5.186-1.5s32.656-5.289,33.965-4.094A5.183,5.183,0,0,1,578.776,625.156Z" transform="translate(-343.335 -381.747)" opacity="0.1"/>
    <path id="Path_445" data-name="Path 445" d="M575.475,549.178a6.36,6.36,0,0,1-3.8,5.158c-3.5,1.356-7.283,3.261-9.864,2.505s-8.027,0-8.027,0-10.984-.912-13.2-.38-3.337-.152-2.657-1.141.608-4.224.608-5.61-.76-6.9-.076-7.891,1.267-4.778,2.657-5.386a1.479,1.479,0,0,0,.845-.963,2.771,2.771,0,0,0,0-1.386s-.228-.19-.549-.473c-.8-.718-2.163-2.049-1.724-2.484.6-.608,0-4.554,0-4.554s-1.445-3.033-.912-4.17-4.647-7.131-4.647-7.131,0-10.316,6.223-10.773c0,0,4.4.152,4.93-1.821s4.022-3.109,4.022-3.109l7.963,1.745s7.055,1.517,8.343.608,2.26,1.208,2.26,1.208,4.4.228,4.854,1.136-1.441,9.784-1.441,9.784a2.66,2.66,0,0,0-2.957,3.113,24.454,24.454,0,0,1-1.217,7.735,18.293,18.293,0,0,0-.076,3.033,9.925,9.925,0,0,1-.367,2.7v.038s-.313,1.267.1,1.719a.424.424,0,0,0,.131.1c.608.3,1.521,3.261,1.521,3.261a3,3,0,0,1,.68,2.045,7.672,7.672,0,0,0,2.353,5.766C573.422,545.229,575.475,549.178,575.475,549.178Z" transform="translate(-337.635 -310.839)" fill="#fffffe"/>
    <path id="Path_446" data-name="Path 446" d="M539.589,552.292v.321l-.139,3.549a29.084,29.084,0,0,1-7.182-.266c-2.535-.646-1.47-3.447-1.373-4.034.076-.532.76-4.972.76-5.69s0-3.68-.114-5.044a32.987,32.987,0,0,1,.566-5.158l.494-.608,5.348,2.049Z" transform="translate(-335.591 -331.509)" fill="#fffffe"/>
    <path id="Path_447" data-name="Path 447" d="M539.558,575.172l-.139,3.549a29.084,29.084,0,0,1-7.182-.266c-2.535-.646-1.47-3.447-1.373-4.034Z" transform="translate(-335.573 -354.068)" opacity="0.1"/>
    <path id="Path_448" data-name="Path 448" d="M551.909,577.976a2.772,2.772,0,0,0,0-1.386s-.228-.19-.549-.473c4.022-.558,19.927-2.742,25.288-2.957v.038s-.313,1.267.1,1.719Z" transform="translate(-347.586 -353.341)" opacity="0.1"/>
    <path id="Path_449" data-name="Path 449" d="M608.9,591.06s.989,5.576-2.691,7.549A16.932,16.932,0,0,0,608.9,591.06Z" transform="translate(-379.264 -363.679)" opacity="0.1"/>
    <path id="Path_450" data-name="Path 450" d="M555.57,608.212s8.871-1.517,10.62-.342S555.57,608.212,555.57,608.212Z" transform="translate(-350.017 -373.13)" opacity="0.1"/>
    <path id="Path_451" data-name="Path 451" d="M604.323,527.5s-1.365,5.614-.342,6.9S604.323,527.5,604.323,527.5Z" transform="translate(-377.757 -326.97)" opacity="0.1"/>
    <path id="Path_452" data-name="Path 452" d="M544.373,516.64a5.447,5.447,0,0,1,.494,4.246C544.094,523.049,544.373,516.64,544.373,516.64Z" transform="translate(-343.522 -320.698)" opacity="0.1"/>
    <path id="Path_453" data-name="Path 453" d="M538.34,559.91s1.593.951,1.06,2.429S538.34,559.91,538.34,559.91Z" transform="translate(-340.066 -345.688)" fill="#fffffe"/>
    <path id="Path_454" data-name="Path 454" d="M538,549.68s1.479.794,1.669,1.969S538,549.68,538,549.68Z" transform="translate(-339.87 -339.78)" opacity="0.1"/>
    <path id="Path_455" data-name="Path 455" d="M589.87,655.317s9.294.951,11.149-1.267C601.019,654.067,592.637,655.719,589.87,655.317Z" transform="translate(-369.827 -400.058)" opacity="0.1"/>
    <path id="Path_456" data-name="Path 456" d="M551.89,655.79s9.974,2.353,11.947.494C563.837,656.3,555.265,656.931,551.89,655.79Z" transform="translate(-347.892 -401.063)" opacity="0.1"/>
    <path id="Path_457" data-name="Path 457" d="M591.57,664.32s4.174,0,6.109.114S591.57,664.32,591.57,664.32Z" transform="translate(-370.809 -405.99)" opacity="0.1"/>
    <path id="Path_458" data-name="Path 458" d="M553.51,668.54s2.049,2.315,4.36,1.9S553.51,668.54,553.51,668.54Z" transform="translate(-348.828 -408.427)" opacity="0.1"/>
    <path id="Path_459" data-name="Path 459" d="M550.214,440.446a8.062,8.062,0,0,0-.845,3.257,13.577,13.577,0,0,1-3.642,7.182c-1.817,1.935-4.313,3.688-4.786,6.049-.444,2.243,1.069,4.4,1.863,6.586,2.112,5.758-.845,11.8-1.69,17.743-.237,1.643.046,3.743,2.07,4.288a11.125,11.125,0,0,1,1.926.422,2.306,2.306,0,0,1,1.132,1.8,27.657,27.657,0,0,1,.524,7.431c-.093,1.4-.194,3,1.124,3.967a6.8,6.8,0,0,0,2.188.87c2.078.562,4.765,1.005,6.168-.3.587-.549.807-1.326,1.542-1.762,1.1-.651,2.657-.211,4.039-.144a7.321,7.321,0,0,0,6.569-3.527,9.454,9.454,0,0,0,.608-6.48,40.42,40.42,0,0,1-1.183-6.514,3.764,3.764,0,0,1,.49-2.205c.845-1.31,2.809-1.905,4.157-2.932,2.535-1.926,2.509-5.069,1.6-7.731s-2.564-5.171-2.767-7.9a3.029,3.029,0,0,1,.372-1.909,7.68,7.68,0,0,1,1.567-1.4c3.68-3.105,3.244-8.208.2-11.7C570.069,441.65,554.818,433.315,550.214,440.446Z" transform="translate(-341.522 -275.081)" fill="#e3787d"/>
    <g id="Group_89" data-name="Group 89" transform="translate(199.25 174.334)" opacity="0.1">
      <path id="Path_460" data-name="Path 460" d="M543.177,490.759a14.435,14.435,0,0,0-.583-6.84c-.4-1.1-.98-2.2-1.407-3.3a4.92,4.92,0,0,0-.456,1.267c-.444,2.243,1.069,4.4,1.863,6.586A11.825,11.825,0,0,1,543.177,490.759Z" transform="translate(-540.651 -474.228)"/>
      <path id="Path_461" data-name="Path 461" d="M546.826,548.233a27.657,27.657,0,0,0-.524-7.431,2.307,2.307,0,0,0-1.132-1.8,11.126,11.126,0,0,0-1.926-.422,2.644,2.644,0,0,1-1.77-1.466c-.114.575-.215,1.153-.3,1.728-.237,1.643.046,3.743,2.07,4.288a11.126,11.126,0,0,1,1.926.422,2.314,2.314,0,0,1,1.132,1.808,27.817,27.817,0,0,1,.49,3.43C546.8,548.6,546.814,548.415,546.826,548.233Z" transform="translate(-540.912 -506.854)"/>
      <path id="Path_462" data-name="Path 462" d="M576.213,559.017a7.317,7.317,0,0,1-6.569,3.527c-1.381-.068-2.957-.507-4.039.144-.731.422-.955,1.212-1.542,1.762-1.4,1.31-4.089.866-6.168.3a6.654,6.654,0,0,1-2.184-.875,2.754,2.754,0,0,1-1.081-1.749c0,.777,0,1.559-.046,2.336-.093,1.4-.194,3,1.128,3.967a6.76,6.76,0,0,0,2.184.87c2.078.562,4.765,1.005,6.168-.3.587-.553.811-1.331,1.542-1.766,1.1-.651,2.657-.211,4.039-.144a7.317,7.317,0,0,0,6.569-3.527,9.215,9.215,0,0,0,.655-6.227A6.878,6.878,0,0,1,576.213,559.017Z" transform="translate(-548.669 -518.538)"/>
      <path id="Path_463" data-name="Path 463" d="M614.588,468.861a7.445,7.445,0,0,0-1.534,1.432,3.029,3.029,0,0,0-.372,1.909,10.216,10.216,0,0,0,.524,2.438,9.984,9.984,0,0,1,1.381-1.229,7.371,7.371,0,0,0,2.285-7.921,7.258,7.258,0,0,1-2.285,3.371Z" transform="translate(-582.237 -465.49)"/>
      <path id="Path_464" data-name="Path 464" d="M609.119,515c-1.348,1.027-3.312,1.622-4.157,2.928a3.8,3.8,0,0,0-.49,2.209,15.5,15.5,0,0,0,.325,2.64,2.021,2.021,0,0,1,.165-.3c.845-1.31,2.809-1.905,4.157-2.932,2.3-1.762,2.493-4.546,1.812-7.03A5.339,5.339,0,0,1,609.119,515Z" transform="translate(-577.503 -492.652)"/>
    </g>
    <path id="Path_465" data-name="Path 465" d="M635.074,514.809a13.313,13.313,0,0,1-3.57,5.492h-1.12l-9.839.1-1.136-3.109L621,510.58l.984.038a5.679,5.679,0,0,0,1.9.608,10.313,10.313,0,0,1,2.535.152.351.351,0,0,0,.186.025c.372-.038.76-.6.76-.6S636.625,510.863,635.074,514.809Z" transform="translate(-386.888 -317.198)" fill="#fffffe"/>
    <path id="Path_466" data-name="Path 466" d="M644.922,515.155a13.313,13.313,0,0,1-3.57,5.492h-1.12a51.526,51.526,0,0,1,2.3-5.492c.482-.722-3.663-2.446-6.071-3.38.372-.038.76-.6.76-.6S646.472,511.21,644.922,515.155Z" transform="translate(-396.735 -317.544)" opacity="0.1"/>
  </g>
</svg>
