<svg xmlns="http://www.w3.org/2000/svg" xmlns:xlink="http://www.w3.org/1999/xlink" width="815.442" height="536.077" viewBox="0 0 815.442 536.077">
  <defs>
    <linearGradient id="linear-gradient" x1="0.5" y1="1" x2="0.5" gradientUnits="objectBoundingBox">
      <stop offset="0" stop-color="gray" stop-opacity="0.251"/>
      <stop offset="0.54" stop-color="gray" stop-opacity="0.122"/>
      <stop offset="1" stop-color="gray" stop-opacity="0.102"/>
    </linearGradient>
    <linearGradient id="linear-gradient-2" x1="0.5" y1="1" x2="0.5" y2="0" xlink:href="#linear-gradient"/>
  </defs>
  <g id="undraw_confirmation_2uy0" transform="translate(0.05 -0.017)">
    <path id="Path_504" data-name="Path 504" d="M781.574,512.145q-3.818,3.356-7.805,6.521c-.447.362-.908.71-1.362,1.079a274.092,274.092,0,0,1-29.8,20.131L740.666,541c-.468.284-.93.546-1.419.809-10.828,6.251-22.061,12.006-33.429,17.456l-.121.064-.859.4q-13.752,6.592-27.915,12.616l-.227.085q-6.386,2.689-12.773,5.237c-1.738.71-3.484,1.37-5.23,2.044-3.285,1.256-6.578,2.491-9.9,3.676l-.411.156-.71.248-.887.326q-12.993,4.641-26.333,8.572l-.156.043q-9.3,2.711-18.726,5.017l-.859.213c-9.225,2.228-18.6,4.144-28.029,5.677l-2.171.348q-10.346,1.625-20.833,2.654c-39.3,3.8-79.076.71-118.139-4.584-78.877-10.7-156.712-30.761-227.7-62.2q-20.436-9.047-40.077-19.372c-.106-.057-.2-.114-.305-.163q-11.758-6.18-23.2-12.879c-2.235-1.291-4.456-2.611-6.663-3.938q-4.073-2.455-8.111-4.967-5.322-3.321-10.644-6.8l-1.66-1.107-.639-.433c-.9-.6-1.788-1.206-2.682-1.817-33.351-22.707-63.089-50.224-77.139-84.661-16.235-39.737-5.847-90.117,34.365-113.6,13.823-8.089,29.888-12.482,46.123-16.108l1.66-.369c2.746-.6,5.492-1.185,8.224-1.767,9.572-2.029,19.194-4.045,28.724-6.294h0c4.967-1.171,9.885-2.4,14.774-3.725l2-.553a239.2,239.2,0,0,0,34.493-12.148h.071q1.8-.8,3.548-1.653c.752-.355,1.5-.71,2.256-1.1,12.063-6,24.835-14.327,34.663-24.247.788-.795,1.554-1.6,2.3-2.413.575-.632,1.142-1.27,1.689-1.909,6.89-8.033,11.658-16.952,12.567-26.418h0a34.058,34.058,0,0,0-.426-9.53c-1.114-5.953-2.193-11.779-2.987-17.463-1.483-10.679-1.987-20.89.071-30.732h0c2.093-10.034,6.84-19.691,15.9-29.058q2.051-2.129,4.421-4.258a93.154,93.154,0,0,1,24.573-15.526q1.66-.71,3.342-1.419c24.892-10.076,54.8-12.176,82.745-10.786a451.392,451.392,0,0,1,77.529,10.786c2.022.454,4.045.93,6.053,1.419a537.423,537.423,0,0,1,63.863,19.748c54.2,20.386,105.352,48.692,153.143,79.928.468.305.937.61,1.419.922q2.994,1.951,5.953,3.917,5.726,3.8,11.353,7.642l2.533,1.724q1.873,1.277,3.725,2.562l3.8,2.633h0a4.183,4.183,0,0,1,.511.362l3.236,2.242c1.873,1.306,3.732,2.618,5.6,3.938h0l4,2.838c.83.6,1.667,1.185,2.5,1.788L737.3,218.2l.951.71c.2.142.4.284.589.44l.121.078c11.538,8.465,22.8,17.243,33.351,26.546l1.362,1.206.142.128c1.149,1.022,2.3,2.058,3.427,3.1,13.78,12.546,26.127,26.028,36.217,40.929C859.813,360.166,846.054,455.471,781.574,512.145Z" transform="translate(-25.44 -72.24)" fill="#fbba23" opacity="0.1"/>
    <path id="Path_505" data-name="Path 505" d="M1040.014,352.687c.454-1.235-2.937-8.089-2.937-8.43s-3.548-4.151-3.548-6.294-4.634-6.741-4.634-6.741-6.23-2.59-6.911-8.2-7.209-5.733-7.465-5.741c0,0,0-.511.043-1.291,0-1.746-.05-4.861-.837-6.571a6.67,6.67,0,0,0-3.846-3.271s-.709-4.378-2.044-5.726a6.451,6.451,0,0,1-1.575-6.074,8.062,8.062,0,0,0-.887-5.244,5.372,5.372,0,0,0-3.307-3.072h-.121c-3.25-.788-6.89-1.994-6.89-1.994s-.369.071-.915.149l-.454-.149a20.283,20.283,0,0,1-2.37.3,2.945,2.945,0,0,1-1.923-.632c-1.135-1.242-10.3-3.6-12-3.6s-6.571-2.249-6.571-2.249l-4.861-3.711c-1.362-1.036-3.889-5.251-4.258-5.875l-.057-.078h0a19.284,19.284,0,0,1-.894-2.476c-.05-.156-.085-.312-.135-.482h0a27.092,27.092,0,0,0,2.7-3.321v-.035c.22-.305.426-.639.631-.958q.447-.71.852-1.469c.114-.22.22-.447.334-.66a2.838,2.838,0,0,0,.71-.121l.305-.114a3.6,3.6,0,0,0,.781-.49l.227-.206a5.541,5.541,0,0,0,1.419-2.178c.078-.241.149-.49.206-.71a1.042,1.042,0,0,1,.064-.255c.021-.078.078-.341.107-.518l.042-.284a2.868,2.868,0,0,1,.085-.5.969.969,0,0,0,0-.291c0-.206.057-.426.078-.639.1-.8.185-1.59.355-2.37a.063.063,0,0,0,0-.035,18.122,18.122,0,0,1,1.674-4.314c.71-1.369,1.49-2.718,2.129-4.13h0c.185-.4.362-.816.518-1.228s.312-.908.454-1.37a1.876,1.876,0,0,1,.1-.419,9.925,9.925,0,0,0,.227-1.015,3.571,3.571,0,0,0,.085-.447c.085-.468.142-.937.185-1.419a17.416,17.416,0,0,0-1.164-7.9c-.844-2.129-2.129-4.009-2.973-6.117-1.3-3.2-1.639-6.819-3.229-9.87-2.661-5.109-8.941-7.664-14.1-5.741-2.455.908-4.591,2.689-7.1,3.491-3.335,1.071-6.918.262-10.381-.22s-7.295-.518-10.076,1.738c-3.2,2.6-4.08,7.5-7.1,10.353a16.31,16.31,0,0,1-2.363,1.774c-.61.419-1.228.83-1.8,1.306a6.721,6.721,0,0,0-2.093,2.838,2.418,2.418,0,0,0-.078.241,2.188,2.188,0,0,0-.078.291,2.957,2.957,0,0,1-.05.333,1.271,1.271,0,0,0,0,.234,4.1,4.1,0,0,0,0,.511h0v.085a3.255,3.255,0,0,0,.092.568v.156a2.826,2.826,0,0,0,.142.468.359.359,0,0,1,0,.092,5.082,5.082,0,0,0,.206.511.826.826,0,0,0,.1.255.977.977,0,0,1,.1.213,13.429,13.429,0,0,1,1.05,2.6,2.952,2.952,0,0,1-.106,1.731,2.765,2.765,0,0,1-.454.759,9.428,9.428,0,0,1-.795.88,23.507,23.507,0,0,0-5.116,8.182c-.128.348-.248.71-.362,1.057h0l.149.043.149.035a4.971,4.971,0,0,0,.844.177,5.153,5.153,0,0,0,.568.064,8.794,8.794,0,0,0,2.313-.184,3.56,3.56,0,0,0,.376-.085h0a.412.412,0,0,0,.114-.035h.071a12.288,12.288,0,0,0,1.859-.646c.142-.064.291-.121.433-.192v2.64a26.7,26.7,0,0,0,13.6,21.706c.4.234.8.454,1.213.66.036.241.071.49.1.71s.057.4.078.61l-.312-.291a2.065,2.065,0,0,0-.844-.17,2.71,2.71,0,0,0-1.348.348,4.968,4.968,0,0,0-1.767,1.724,12.583,12.583,0,0,1-5.549,4.257s-20.578,3.257-21.387,5.953l-9.622.568s-3.4.447-3.733,7.529v.163c-.05.844-.113,1.6-.191,2.271v.1c-.6,4.719-1.944,5.223-1.944,5.223s-3.967,6.968-3.626,10.566a.337.337,0,0,1,0,.085h0a4.631,4.631,0,0,1-.092,1.455,6.386,6.386,0,0,1-2.966,3.825l-.447,6.386s-3.732-.561-4.754,3.825a15.137,15.137,0,0,1-2.838,6.386s-6.223,5.173-6.564,9.551l-3.853,2.363s-8.934-2.022-10.977-5.62c0,0-.241-.241-.624-.589l-.057-.085a.2.2,0,0,0,0,.043c-1.334-1.263-4.179-3.9-3.74-3.3a2.781,2.781,0,0,1,.185,1.817l-.667-.71-1.781-1.987s-2.547-2.384-6.131-5.23h0q-1.228-.979-2.59-2c-4.584-3.4-10.1-6.848-14.192-7.366-.085-.17-.426-1.455-1.228-1.455a1.348,1.348,0,0,0-.88.433,11.807,11.807,0,0,0-.078,17.314l.93.866,2.881,2.7,9.721,9.083c.121.085.234.177.355.255l.575.71.447.575.773.986,1.114,1.419c-.057.149-.121.291-.17.433-.419,1.022-.781,2.015-1.078,2.923v.1c-.071.227-.142.44-.206.653a.882.882,0,0,1-.071.22c-.071.213-.128.426-.192.617a2.992,2.992,0,0,0-.1.369,2.076,2.076,0,0,1-.071.22c-.319,1.128-.518,1.994-.625,2.476l-.752-.234.71.319a.97.97,0,0,1,0,.121l-.043.227c.22.106.454.206.71.305l.163.071,2.782,1.228h0c.56.248,1.171.511,1.824.809s1.157.518,1.788.788h0c7.266,3.236,17.449,7.884,18.172,8.813,1.128,1.469,8.6,5.733,15.4,2.129s8.252-9.111,8.252-9.111,6.571-9.1,6.8-10.445c.17-1.036,3.207-2.207,4.612-2.7l.135-.043.568-.185v1.717c0,3.165-.043,10.048-1.036,15.05a.093.093,0,0,0,0,.043,16.363,16.363,0,0,1-1.128,3.761c-2.6,5.506-7.465,29.9-7.465,29.9h.114a3.293,3.293,0,0,1,.851-.043c-.1.454-.163.809-.213,1.05s-.071.362-.071.362h.085a3.264,3.264,0,0,1,.823-.05,1.732,1.732,0,0,1,.277.035,4.348,4.348,0,0,1-.071.511v.177c0,.028-.042.22-.057.341-.589,4.059-2.292,14.625-2.292,14.625s-.71,5.84-1.816,7.862c-.475.859-.766,3.236-.951,5.677,0,.355-.05.71-.078,1.079-.184,3.009-.213,5.826-.213,5.826l-.05.185-1.667,7.564a2.169,2.169,0,0,0,.092.206h0c.121.227.312.617.589,1.1h0l.085.185a21.126,21.126,0,0,0,3.931,5.535,10.216,10.216,0,0,0,1.192,1.015h0a1.28,1.28,0,0,1-.05.248c-.014.071-.043.27-.064.4a11.485,11.485,0,0,1-.8,2.838,9.492,9.492,0,0,0-.816,3.094,14.208,14.208,0,0,0-.071,2.3l-.092.419h0c-.248,1.157-.958,4.548-1.341,7.309-.092.632-.177,1.242-.227,1.809a8.8,8.8,0,0,0,0,1.582,12.986,12.986,0,0,1-.142,2.654,6,6,0,0,1-.092.781c-.383,2.5-1.015,5.116-1.015,5.116l-2.037,19.549v1.157a2.255,2.255,0,0,1-.042.511c0,.461-.071,1.008-.121,1.646a6.2,6.2,0,0,1-.043.71,3.7,3.7,0,0,1-.043.674v.369a3.333,3.333,0,0,1-.035.561,2.735,2.735,0,0,0,0,.539v.5c-.064,1.043-.135,2.171-.185,3.314v1.093a8.213,8.213,0,0,1-.05,1.093v7.224a20.659,20.659,0,0,0,.17,2.257c.078.553.135,1.135.163,1.731v.823a3.924,3.924,0,0,1,0,.412v3.179c-.177,2.441-.511,4.421-.56,4.733h0v.667c0,.177.043.4.064.653v.355h0a1.4,1.4,0,0,0,.043.412c.043.142,0,.135,0,.213,0,.255.043.518.071.795s.064.575.085.873l.043.561c0,.27.057.554.078.83v.284c0,.192.042.376.057.575l.064.873c0,.192.043.39.057.582a1.957,1.957,0,0,1,0,.3l.092,1.149a3.059,3.059,0,0,0,.035.568c0,.3.043.6.071.887s0,.653.05.951a6.106,6.106,0,0,1,.043.866,12,12,0,0,1,0,2.405c-.185.809-.781,3.073-1.121,5.528,0,.22-.064.44-.085.667a2.408,2.408,0,0,0,0,.4l-.043.532c0,.426-.05.859-.05,1.277a9.849,9.849,0,0,0,.319,2.838,13.461,13.461,0,0,1,.355,1.873.964.964,0,0,0,.035.312c0,.227.05.461.071.709s.035.483.05.71c0,.5.042,1.008.064,1.526v1.029c.05,2.994-.092,5.925-.135,6.677v.185s.71,12.6,1.469,16.633c.1.532.17,1.071.22,1.625a3.607,3.607,0,0,0,.035.617,31.667,31.667,0,0,1-.483,6.982s-.795,8.65-1.128,8.65a5.539,5.539,0,0,0-1.015,3.349v.057c-.1,2.249.589,5.343,3.725,8.4l.341.333.411-.156c3.321-1.185,6.613-2.42,9.9-3.676,1.746-.674,3.491-1.348,5.23-2.044q6.443-2.548,12.773-5.237h0a.808.808,0,0,1-.4-.511c-.653-1.739.319-7.1.518-7.919s2.036-18.329,2.036-18.329-.709-5.5.227-7.855-1.135-11.474-1.135-11.474a2.028,2.028,0,0,1,.568-2.469c1.277-1.348.795-13.376.795-13.376s-.114-6.074-.114-7.65,1.362-7.309,2.6-9.225.461-7.876.461-7.876h0l.071-.454a4.5,4.5,0,0,1,.1-.632l.106-.6a83.4,83.4,0,0,1,2.2-9.757c1.476-4.719,3.172-13.035,3.172-13.035l9.9-26.546h0l.327-.823.121-.326s4.861,9,4.861,17.314c0,0,1.249,10.005.915,12.7s1.015,15.4,1.015,15.4,1.462,18.215,1.462,19,1.817,14.795,2.952,16.924-1.135,8.657-1.81,9.331.227,17.2.227,17.2-1.71,13.035-2.044,15.731c-.064.49-.163,1.228-.27,2.129,11.353-5.45,22.6-11.2,33.429-17.456.468-.263.93-.525,1.419-.809l.078-16.129s.795-7.529-.114-10.573-1.809-8.87-.561-10.445.114-8.877.114-8.877,0-15.405,1.7-19.223,1.135-27.986,1.135-27.986l.447-15.852s3.612-3.42,2.838-21.139v-.6c3.945-.248,8.394-.39,9.068.163,1.079.866,7.153,4.8,11.857,3.818h0a5.769,5.769,0,0,0,2.171-.9,63.881,63.881,0,0,0,5.677-4.385l-1.8-30.321h0l-.192-3.371c.341.518.639.979.894,1.419.709,1.079,1.1,1.738,1.1,1.738,0-4.719,13.361-20,13.361-20s12.453-16.072,15.164-17.988,8.04-12.027,8.04-12.027a49.043,49.043,0,0,1,2.718-5.62C1043.654,359.322,1039.56,353.922,1040.014,352.687Zm-39.843,21.578a7.047,7.047,0,0,1-1.5,3.03c-.057-.71-.114-1.369-.17-2.079v-.184c-.795-9.892-1.646-21.855-1.256-23.026a27.447,27.447,0,0,0,.468-5.8h0c.049-2.718,0-5.308,0-5.308h0l.128-.177c2.285,7.1,9.373,15.37,9.373,15.37s1.249,3.6,2.718,3.711.9,4.719.9,4.719a5.35,5.35,0,0,0-1.93.71,16.917,16.917,0,0,0-2,1.355h0C1003.648,369.05,1000.249,373.116,1000.171,374.266Z" transform="translate(-253.503 -110.927)" fill="url(#linear-gradient)"/>
    <path id="Path_506" data-name="Path 506" d="M837,417.1s4.13-21.642,17.4-21.756l9.707,19.968-6.528,4.435S843.557,420.19,837,417.1Z" transform="translate(-261.143 -166.068)" fill="#65617d"/>
    <path id="Path_507" data-name="Path 507" d="M864.078,415.288l-6.5,4.463s-9.892.312-16.959-1.419A19.369,19.369,0,0,1,837,417.1a1.311,1.311,0,0,1,.071-.348.5.5,0,0,1,0-.085,49.25,49.25,0,0,1,2.512-7.947c.4-.972.873-1.973,1.37-2.973,1.944-3.739,4.676-7.408,8.416-9.225a11.511,11.511,0,0,1,4.421-1.157h.589l.22.44,3.278,6.748Z" transform="translate(-261.143 -166.077)" opacity="0.1"/>
    <path id="Path_508" data-name="Path 508" d="M1026.327,524.808s13.943-1.334,15.171-.334,9.146,6.138,13.837,2.9,1.561-14.5,1.561-14.951-.447-16.4-.447-16.4l-8.366-11.268L1037.6,465.019l-21.415-2.129.554,31.349-.106,16.065Z" transform="translate(-313.18 -185.686)" fill="#65617d"/>
    <path id="Path_509" data-name="Path 509" d="M1026.327,524.808s13.943-1.334,15.171-.334,9.146,6.138,13.837,2.9,1.561-14.5,1.561-14.951-.447-16.4-.447-16.4l-8.366-11.268L1037.6,465.019l-21.415-2.129.554,31.349-.106,16.065Z" transform="translate(-313.18 -185.686)" opacity="0.1"/>
    <path id="Path_510" data-name="Path 510" d="M844.532,386.113s-1.1,13.61-9.615,13.823a66.762,66.762,0,0,1-5.634-3.867c-7.451-5.57-19.265-16.285-16-26.255,4.683-14.277,27.44,12.063,27.44,12.063l1.753,1.958Z" transform="translate(-254.093 -157.423)" fill="#a5636d"/>
    <path id="Path_511" data-name="Path 511" d="M851.019,393.582s-1.1,13.61-9.615,13.823a66.762,66.762,0,0,1-5.634-3.867l-.71-.93a11.084,11.084,0,0,0,4.648,1.256,6.23,6.23,0,0,0,6.067-3.825,49.241,49.241,0,0,0,2.349-5.4,16.254,16.254,0,0,0,.852-3.349Z" transform="translate(-260.58 -164.892)" opacity="0.1"/>
    <path id="Path_512" data-name="Path 512" d="M847.609,417.771l-1.909-2.455-6.386-8.267L836,402.828a11.077,11.077,0,0,0,4.641,1.249,6.22,6.22,0,0,0,6.067-3.825,47.913,47.913,0,0,0,2.349-5.4c1.057-3.009,1.036-4.556.66-5.081s2.37,2.022,3.69,3.278l.05.043.61.582.234.454,3.229,6.464v.27C857.827,402.913,858.912,415.927,847.609,417.771Z" transform="translate(-260.853 -164.43)" fill="#e7effd"/>
    <path id="Path_513" data-name="Path 513" d="M930.266,692.094a3.234,3.234,0,0,0-.667-.44h-.057c-1.334-.56-.114-7.479.114-8.373s2.008-18.151,2.008-18.151-.667-5.457.227-7.805-1.121-11.353-1.121-11.353a2.086,2.086,0,0,1,.561-2.455c1.227-1.341.781-13.276.781-13.276s-.107-6.017-.107-7.585,1.334-7.245,2.562-9.147.447-7.805.447-7.805h0l.064-.454c.035-.163.064-.376.1-.624l.106-.6a2.911,2.911,0,0,1,.078-.454c.064-.355.135-.71.213-1.164.043-.255.092-.525.149-.795.163-.851.355-1.788.561-2.746.064-.3.135-.6.206-.9s.17-.71.262-1.079c.057-.22.106-.433.17-.653.163-.653.341-1.284.532-1.888,1.419-4.69,3.129-12.943,3.129-12.943l10.367-27.234.121-.326.326.631h0c1.079,2.178,4.463,9.594,4.463,16.541,0,0,1.234,9.934.894,12.6s1.008,15.285,1.008,15.285,1.419,18.066,1.419,18.847,1.788,14.731,2.9,16.846-1.114,8.593-1.788,9.225.227,17.073.227,17.073-1.675,12.936-2.015,15.611c-.071.639-.213,1.71-.362,3.023l.859-.4.12-.064c11.353-5.45,22.6-11.2,33.429-17.456l.092-17.108s.781-7.479-.106-10.488-1.788-8.813-.568-10.381.121-8.806.121-8.806,0-15.284,1.667-19.074,1.121-27.78,1.121-27.78l.44-15.724s3.64-3.47,2.781-21.578c-.092-1.93-.234-4.023-.433-6.308-.617-6.833-1.242-13.021-1.809-18.378-.05-.461-.1-.915-.149-1.355-.057-.6-.128-1.185-.185-1.76-.135-1.213-.262-2.377-.39-3.484-.043-.326-.078-.646-.114-.965q-.277-2.384-.518-4.4c-.057-.525-.128-1.043-.185-1.533-.092-.71-.177-1.419-.255-2.079a3.533,3.533,0,0,0-.064-.468,5.95,5.95,0,0,0-.1-.816c-.369-2.9-.589-4.477-.589-4.477h-.1l-11.219.1-24.488.234h-.716l-12.773.121h-.781l-6.131.064h-1.043l-12.773.121h-.773l-5.244,21.614-10.708,24.545s-.163,2.689-.539,5.315v.156a.513.513,0,0,1-.042.255,1.864,1.864,0,0,0-.064.4,13.779,13.779,0,0,1-.9,3.47,8.67,8.67,0,0,0-.71,2.448,14.357,14.357,0,0,0-.163,2.718h0v.149s-.851,3.867-1.348,7.16c-.092.632-.177,1.242-.227,1.809a11.464,11.464,0,0,0-.1,2.079,11.65,11.65,0,0,1-.078,2.129,5.994,5.994,0,0,1-.092.781c-.348,2.611-1.05,5.535-1.05,5.535l-2.015,19.414a.414.414,0,0,1,0,.064v.809a2.254,2.254,0,0,1-.042.511c0,.461-.071,1.008-.121,1.646a6.208,6.208,0,0,1-.042.71,3.69,3.69,0,0,1-.043.674v.369a3.338,3.338,0,0,1-.035.56,2.739,2.739,0,0,0,0,.539v.5c-.057,1.043-.128,2.171-.177,3.314v1.093a8.184,8.184,0,0,1-.05,1.093v7.28a19.35,19.35,0,0,0,.17,2.37c.071.525.128,1.064.163,1.618v4.414c-.177,2.441-.511,4.421-.56,4.733h0v.667c0,.177.042.4.064.653v.355h0a1.4,1.4,0,0,0,.043.411c.042.142,0,.135,0,.213,0,.256.042.518.071.795s.057.575.085.873l.043.561c0,.27.057.554.078.83v.284c0,.192.043.376.057.575l.064.873c0,.192.042.39.057.582v.3l.092,1.15a3.048,3.048,0,0,0,.036.568c0,.3.043.6.071.887s0,.653.05.951a6.091,6.091,0,0,1,.043.866,12.626,12.626,0,0,1,0,2.327,54.363,54.363,0,0,0-1.107,5.606c0,.22-.064.44-.085.667a2.407,2.407,0,0,0,0,.4l-.043.532c0,.426-.05.859-.05,1.277a9.785,9.785,0,0,0,.319,2.675,15.046,15.046,0,0,1,.39,2.356c.057.454.092.937.121,1.419s.043,1.008.064,1.526v1.029c.043,3.37-.142,6.592-.142,6.592a.71.71,0,0,0,0,.085v.057c.071,1.419.71,12.609,1.419,16.37a17.033,17.033,0,0,1,.248,2.015,3.606,3.606,0,0,0,.035.617,32.5,32.5,0,0,1-.5,6.521s-1.043,8.664-1.377,8.664c-.17,0-1.022,1.575-1,3.881v.057c0,2.171.837,4.967,3.683,7.805l.795.795c3.321-1.185,6.613-2.42,9.9-3.676,1.745-.674,3.491-1.348,5.229-2.044q6.443-2.548,12.773-5.237Z" transform="translate(-278.754 -192.002)" fill="#3f3d56"/>
    <path id="Path_514" data-name="Path 514" d="M1010.65,297.141l-16.512,17.633s-21.188-8.515-18.96-11.353c.866-1.121.71-4.662.227-8.572-.78-6.18-2.455-13.3-2.455-13.3s37.033-6.024,33.9.227a10.248,10.248,0,0,0-.234,7.408A28.084,28.084,0,0,0,1010.65,297.141Z" transform="translate(-300.625 -132.264)" fill="#a5636d"/>
    <path id="Path_515" data-name="Path 515" d="M1006.854,281.739c-1.135,2.278-1.682,2.5-.972,4.967-4.839,5.194-11,10.878-18.655,10.878a26.426,26.426,0,0,1-11.822-2.767c-.78-6.181-2.455-13.3-2.455-13.3S1009.983,275.488,1006.854,281.739Z" transform="translate(-300.625 -132.253)" opacity="0.1"/>
    <path id="Path_516" data-name="Path 516" d="M1008.755,255.914a26.553,26.553,0,1,1-53.105,0v-.383a26.551,26.551,0,1,1,53.1.383Z" transform="translate(-295.601 -117.81)" fill="#a5636d"/>
    <path id="Path_517" data-name="Path 517" d="M1005.337,507.68c-3.548,0-15.228.128-28.313.333h-.163l-4.321.071h-.135c-15.519.248-30.81-2.782-36.948-2.207-13.056,1.228,4.683-12.063,4.683-12.063a109.277,109.277,0,0,0,29.732,3.009l3.754-.2c11.857-.667,23.778-1.781,30.008-3.654C1004.067,496.433,1004.7,501.45,1005.337,507.68Z" transform="translate(-288.344 -194.421)" opacity="0.1"/>
    <path id="Path_518" data-name="Path 518" d="M1005.337,506.74c-3.548,0-15.228.121-28.313.333h-.163l-4.321.071h-.135c-15.519.248-30.81-2.782-36.948-2.207-13.056,1.221,4.683-12.063,4.683-12.063a109.1,109.1,0,0,0,29.732,3l3.754-.192c11.857-.667,23.778-1.788,30.008-3.654C1004.067,495.493,1004.7,500.524,1005.337,506.74Z" transform="translate(-288.344 -194.148)" fill="#5f5d7e"/>
    <path id="Path_519" data-name="Path 519" d="M968.119,313.35l-20.528,9.594L931.76,445.4s9.367-4.258,14.724-1.561,21.862.227,21.862.227,12.063-.71,13.83.667,22.764-5.577,22.764-5.577,3.789-8.48.887-9.814.894-14.525.894-14.525l-1.781-88.351-3.548-11.353-9.594-5.8-9.814,7.805-4.683.674Z" transform="translate(-288.663 -141.087)" opacity="0.1"/>
    <path id="Path_520" data-name="Path 520" d="M968.119,311.445,947.6,321.039,931.76,443.527s9.367-4.258,14.724-1.561,21.862.22,21.862.22,12.063-.667,13.83.667,22.764-5.577,22.764-5.577,3.789-8.472.887-9.814.894-14.5.894-14.5l-1.781-88.35-3.548-11.353-9.594-5.8-9.814,7.805-4.683.667Z" transform="translate(-288.663 -140.544)" fill="#e7effd"/>
    <path id="Path_521" data-name="Path 521" d="M976.016,320.368s5.918,7.025,5.8,8.48-.333,4.9-.333,4.9l-4.428,9.04S974.6,354.059,974.6,356.4s-3.9,22.643-3.9,22.643l-4.683,31.222L960.1,451.209l6.024,10.374,7.138-6.024,9.473-72.945,2.008-14.39s2.129-25.879,2.129-28.554a91.22,91.22,0,0,0-1.227-9.707s1.455-6.691,7.479-8.252-.447-.341-.447-.341l-3.456-2.789-3.016,1.228S977.8,317.246,976.016,320.368Z" transform="translate(-296.894 -143.776)" opacity="0.1"/>
    <path id="Path_522" data-name="Path 522" d="M975.059,319.428s5.911,7.025,5.8,8.472-.341,4.91-.341,4.91l-4.463,9.04s-2.455,11.261-2.455,13.6-3.9,22.65-3.9,22.65l-4.69,31.222L959.1,450.262l6.024,10.374,7.138-6.024,9.473-72.938,2.008-14.39s2.129-25.879,2.129-28.561a90.748,90.748,0,0,0-1.228-9.7s1.419-6.7,7.472-8.26-.44-.333-.44-.333l-3.463-2.789-3.009,1.228S976.847,316.3,975.059,319.428Z" transform="translate(-296.603 -143.503)" fill="#fbba23"/>
    <path id="Path_523" data-name="Path 523" d="M974.263,303.65s-.894.667-1.114,5.13-3.349,14.5-3.349,14.5,11.6-8.033,17.406-7.138Z" transform="translate(-299.711 -139.44)" opacity="0.1"/>
    <path id="Path_524" data-name="Path 524" d="M974.263,301.76s-.894.674-1.114,5.13-3.349,14.5-3.349,14.5,11.6-8.033,17.406-7.138Z" transform="translate(-299.711 -138.891)" fill="#e7effd"/>
    <path id="Path_525" data-name="Path 525" d="M1013.265,298.62,995,314.685s15.4,9.147,17.406,11.353,4.016-21.862,4.016-21.862Z" transform="translate(-307.029 -137.979)" opacity="0.1"/>
    <path id="Path_526" data-name="Path 526" d="M1014.193,296.73,995.9,312.795s15.391,9.147,17.4,11.353,4.016-21.869,4.016-21.869Z" transform="translate(-307.29 -137.43)" fill="#e7effd"/>
    <path id="Path_527" data-name="Path 527" d="M955.219,303.581s-2.008-1.008-3.9,1.895a12.7,12.7,0,0,1-5.464,4.258s-20.308,3.236-21.089,5.911l-9.48.553s-3.349.4-3.661,7.5-2.129,7.692-2.129,7.692-3.91,6.919-3.548,10.488-3.016,5.357-3.016,5.357L916.9,383.452s.447,14.951-2.129,20.415-7.366,29.675-7.366,29.675,2.008-.447,1.895.894-2.455,15.951-2.455,15.951-.667,5.8-1.781,7.805-1.228,12.5-1.228,12.5L902,478.274s4.258,9.48,10.715,8.139,18.18-26.659,18.18-26.659l7.472-27.326,5.8-27,1.675-18.293,2.675-40.5,3.9-26.773S956.8,305.475,955.219,303.581Z" transform="translate(-280.021 -139.371)" opacity="0.1"/>
    <path id="Path_528" data-name="Path 528" d="M954.312,301.692s-2.008-1-3.9,1.9a12.7,12.7,0,0,1-5.471,4.258s-20.3,3.236-21.082,5.911l-9.48.561s-3.349.447-3.683,7.472-2.129,7.7-2.129,7.7-3.9,6.918-3.548,10.488-3.009,5.35-3.009,5.35l13.922,36.231s.447,14.951-2.129,20.415-7.358,29.675-7.358,29.675,2.008-.447,1.895.894-2.455,15.951-2.455,15.951-.667,5.8-1.781,7.805-1.228,12.5-1.228,12.5L901.1,476.42s4.258,9.48,10.708,8.146S929.994,457.9,929.994,457.9l7.472-27.326,5.8-26.964,1.668-18.293,2.682-40.489,3.9-26.773S955.873,303.593,954.312,301.692Z" transform="translate(-279.759 -138.823)" fill="#65617d"/>
    <path id="Path_529" data-name="Path 529" d="M863.793,415l-6.5,4.463s-9.892.312-16.959-1.419l-3.6-1.6-.71-.319.745.234c3.732,1.107,6.649,1.086,8.927.319,9.161-3.08,8.146-18.2,7.805-21.621a3.071,3.071,0,0,0-.071-.646.206.206,0,0,1,0-.043l.057.085a4.059,4.059,0,0,0,.419.589,4.717,4.717,0,0,0,.412.433h0l3.229,6.464v.27Z" transform="translate(-260.859 -165.786)" opacity="0.1"/>
    <path id="Path_530" data-name="Path 530" d="M886.489,362l-3.122.894-.447,6.386s-3.683-.554-4.683,3.8a15.512,15.512,0,0,1-2.789,6.386s-6.138,5.13-6.471,9.48l-3.8,2.342s-8.813-2.008-10.821-5.577c0,0,4.016,28.781-17.4,21.756,0,0,23.984,10.488,25.1,11.935s8.479,5.677,15.171,2.129,8.146-9.147,8.146-9.147,6.471-9.033,6.691-10.374,5.244-2.9,5.244-2.9l9.594-23.2Z" transform="translate(-261.132 -156.386)" fill="#65617d"/>
    <path id="Path_531" data-name="Path 531" d="M1016.214,311.454l3.236-14.724s1.419,4.8,2.9,5.911,4.8,3.683,4.8,3.683,4.8,2.235,6.464,2.235,10.715,2.342,11.829,3.548,5.577.334,5.577.334,3.683,1.228,6.918,2.008,4.8,6.138,4.123,8.252a6.45,6.45,0,0,0,1.561,6.024c1.341,1.341,2.008,5.677,2.008,5.677a6.543,6.543,0,0,1,3.8,3.236c1.114,2.455.78,7.805.78,7.805l-16.619,23.416s.22,9.033-.447,11.041,2.342,36.146,2.342,36.146l3.456,58.676a61.656,61.656,0,0,1-5.577,4.35c-1.008.447-2.008-20.748-2.008-21.529s-25.765-38.6-25.765-38.6-3.463-5.577-3.463-6.8-3.236-12.489-3.236-12.489L1014,377.942Z" transform="translate(-312.547 -137.43)" opacity="0.1"/>
    <path id="Path_532" data-name="Path 532" d="M1072.133,344.19c0,.766-.043,1.277-.043,1.277l-16.611,23.416h0s.227,9.04-.44,11.048c-.39,1.164.461,13.17,1.249,23.026.561,7.1,1.093,13.113,1.093,13.113l1.462,24.892,1.987,33.79a62.438,62.438,0,0,1-5.57,4.35c-1,.447-2.008-20.748-2.008-21.536s-25.786-38.609-25.786-38.609-3.456-5.584-3.456-6.812-3.236-12.5-3.236-12.5l-4.9-21.749,2.228-66.488,1.895-14.724s2.789,4.8,4.257,5.911,4.79,3.683,4.79,3.683,4.8,2.235,6.472,2.235,10.708,2.342,11.829,3.548,5.577.334,5.577.334,3.676,1.228,6.911,2.008,4.8,6.138,4.13,8.252a6.429,6.429,0,0,0,1.561,6.024c1.334,1.334,2.008,5.677,2.008,5.677a6.563,6.563,0,0,1,3.8,3.236C1072.083,339.357,1072.154,342.451,1072.133,344.19Z" transform="translate(-313.09 -137.419)" fill="#65617d"/>
    <path id="Path_533" data-name="Path 533" d="M918.8,783.943c-1.739.71-3.484,1.37-5.23,2.044-5.471-1.6-10.58-3.477-10.58-3.477a145.318,145.318,0,0,1,15.81,1.433Z" transform="translate(-280.308 -278.508)" opacity="0.1"/>
    <path id="Path_534" data-name="Path 534" d="M999.67,700.6s13.276,3.122,14.057,5.244Z" transform="translate(-308.385 -254.72)" opacity="0.1"/>
    <path id="Path_535" data-name="Path 535" d="M926.224,714.12s-6.918,2.008-.22,6.024S926.224,714.12,926.224,714.12Z" transform="translate(-286.143 -258.647)" opacity="0.1"/>
    <path id="Path_536" data-name="Path 536" d="M970.74,561.9c.781,0,12.943-4.016,17.179-2.228a28.182,28.182,0,0,0,9.487,1.781Z" transform="translate(-299.984 -213.659)" opacity="0.1"/>
    <path id="Path_537" data-name="Path 537" d="M966.524,578.479l-.121,1.107L956,606.792s-1.674,8.252-3.129,12.936a84.809,84.809,0,0,0-2.171,9.686l9.225-57.093Z" transform="translate(-294.164 -217.466)" opacity="0.1"/>
    <path id="Path_538" data-name="Path 538" d="M992.909,508.575l-4.321.071h-.135L985.92,497.4c1.242-.057,2.5-.121,3.754-.2Z" transform="translate(-304.392 -195.65)" fill="#3f3d56"/>
    <path id="Path_539" data-name="Path 539" d="M1051.572,489.621l-2.774,2.292-9.246,7.642s-25.1,13.39-32.009.667c-6.1-11.2,22.359-19.2,29.214-20.947.93-.234,1.462-.355,1.462-.355Z" transform="translate(-310.425 -190.341)" fill="#a5636d"/>
    <path id="Path_540" data-name="Path 540" d="M918.87,339.49s4.9,2.235,6.017,5.357S918.87,339.49,918.87,339.49Z" transform="translate(-284.92 -149.849)" opacity="0.1"/>
    <path id="Path_541" data-name="Path 541" d="M895.457,386.66s-7.138,8.7-4.258,12.063S895.457,386.66,895.457,386.66Z" transform="translate(-276.685 -163.547)" opacity="0.1"/>
    <path id="Path_542" data-name="Path 542" d="M1074.5,346.41s-6.692.667-6.918,6.471Z" transform="translate(-328.107 -151.858)" opacity="0.1"/>
    <path id="Path_543" data-name="Path 543" d="M989.92,466.5c.71-.667,16.065-23.416,19.634-21.415Z" transform="translate(-305.554 -180.48)" opacity="0.1"/>
    <path id="Path_544" data-name="Path 544" d="M1008.755,255.926a26.459,26.459,0,0,1-3.143,12.531h-.2c-1.682-.355-2.554-2.313-3.839-3.548a5.23,5.23,0,0,0-6.024-.844,6.109,6.109,0,0,0-2.959,5.726c-.852-3.548-.582-7.373-1.419-10.949s-3.328-7.2-6.748-7.266c-1.476,0-3.193.546-4.258-.561-.646-.667-.773-1.717-1.256-2.526-2.448-3.952-9.885-1.951-12.922.078s-6.564,5.265-10.339,7a26.551,26.551,0,1,1,53.1.383Z" transform="translate(-295.601 -117.822)" opacity="0.1"/>
    <path id="Path_545" data-name="Path 545" d="M976.138,241.927c.483.809.61,1.859,1.256,2.526,1.064,1.1,2.781.532,4.257.561,3.42.057,5.918,3.683,6.748,7.259s.561,7.38,1.419,10.949a6.109,6.109,0,0,1,2.959-5.719,5.216,5.216,0,0,1,6.017.844c1.284,1.22,2.129,3.179,3.846,3.548s3.307-1.263,3.917-3.037.561-3.718.958-5.556c.759-3.484,3.03-6.337,4.258-9.643a17.456,17.456,0,0,0-.113-12.46c-.837-2.129-2.079-3.981-2.931-6.074-1.277-3.179-1.618-6.762-3.179-9.792-2.625-5.074-8.813-7.607-13.894-5.677-2.427.915-4.534,2.682-7,3.47-3.292,1.057-6.819.263-10.232-.213s-7.188-.518-9.934,1.724c-3.158,2.583-4.023,7.436-6.989,10.275-1.249,1.192-2.8,1.951-4.109,3.051a5.624,5.624,0,0,0-2.3,4.527c.2,2.313,2.462,4.414,1.625,6.549a5.174,5.174,0,0,1-1.242,1.632,23.416,23.416,0,0,0-5.4,9.189c5.975,1.866,12.432-4.719,17.108-7.805C966.261,239.976,973.7,237.968,976.138,241.927Z" transform="translate(-292.822 -111.955)" fill="#4c3e42"/>
    <path id="Path_546" data-name="Path 546" d="M1063.687,489.618l-2.774,2.292c-2.448-4.08-12.5-12.226-12.5-12.226l.433-.419c.93-.234,1.462-.355,1.462-.355Z" transform="translate(-322.54 -190.338)" opacity="0.1"/>
    <path id="Path_547" data-name="Path 547" d="M1066.642,484.054s-1,2.484-2.029,4.634-2.129,4.094-2.214,2.512c-.114-3.129-13.049-13.617-13.049-13.617l1.753-1.7,2.036-1.98Z" transform="translate(-322.813 -188.883)" fill="#e7effd"/>
    <path id="Path_548" data-name="Path 548" d="M1067.133,459.588l1.462,24.892c-3.463-5.386-12.978-19.2-19.095-18.754l14.837-17.03a19.123,19.123,0,0,0,1.7-2.186C1066.6,453.592,1067.133,459.588,1067.133,459.588Z" transform="translate(-322.857 -180.929)" opacity="0.1"/>
    <path id="Path_549" data-name="Path 549" d="M1067.371,484.054s-1,2.484-2.029,4.634c-3.888-5.336-9.225-11.63-13.482-12.808l2.037-1.98Z" transform="translate(-323.542 -188.883)" opacity="0.1"/>
    <path id="Path_550" data-name="Path 550" d="M1078.117,361l4.016,3.122s6.691.114,7.358,5.677,6.8,8.146,6.8,8.146,4.577,4.57,4.577,6.691,3.456,5.911,3.456,6.244,3.349,7.138,2.9,8.366,3.548,6.585,2.342,8.593a49.216,49.216,0,0,0-2.675,5.577s-5.244,10.041-7.926,11.935-14.944,17.846-14.944,17.846-13.163,15.171-13.163,19.868c0,0-12.829-21.422-20.415-20.862l14.838-17.066s2.562-2.789,2.675-4.463,7.139-9.374,10.488-9.707c0,0,.553-4.577-.894-4.683s-2.675-3.683-2.675-3.683-9.821-11.6-9.934-18.967S1078.117,361,1078.117,361Z" transform="translate(-323.132 -156.095)" fill="#65617d"/>
    <path id="Path_551" data-name="Path 551" d="M1094.64,376s-9.374,6.911-7.365,9.147S1094.64,376,1094.64,376Z" transform="translate(-333.745 -160.452)" opacity="0.1"/>
    <path id="Path_552" data-name="Path 552" d="M1098.4,415.2s17.4-5.577,19.159,0Z" transform="translate(-337.058 -171.115)" opacity="0.1"/>
    <path id="Path_553" data-name="Path 553" d="M924.249,374.08s0,25.431-2.178,27.943S924.249,374.08,924.249,374.08Z" transform="translate(-285.672 -159.894)" opacity="0.1"/>
    <path id="Path_554" data-name="Path 554" d="M1067.11,385.63l3.236,9.09S1071.63,385.8,1067.11,385.63Z" transform="translate(-327.971 -163.248)" opacity="0.1"/>
    <g id="Group_133" data-name="Group 133" transform="translate(653.286 118.491)" opacity="0.1">
      <path id="Path_555" data-name="Path 555" d="M955.194,245.606c.816-2.093-1.32-4.144-1.6-6.386a4.258,4.258,0,0,0-.355,2.015c.142,1.7,1.419,3.271,1.724,4.839a2.827,2.827,0,0,0,.234-.468Z" transform="translate(-948.184 -239.22)"/>
      <path id="Path_556" data-name="Path 556" d="M990.121,272.512c-.8-3.548-.568-7.245-1.377-10.757s-3.328-7.209-6.748-7.266c-1.476,0-3.193.539-4.258-.561-.646-.667-.773-1.717-1.256-2.526-2.441-3.952-9.877-1.951-12.922.078-4.562,3.03-10.828,9.374-16.682,7.94-.277.674-.539,1.355-.759,2.058,5.975,1.866,12.432-4.719,17.108-7.805,3.044-2.022,10.473-4.03,12.922-.071.482.809.61,1.859,1.256,2.526,1.064,1.1,2.781.532,4.257.561,3.42.057,5.918,3.683,6.748,7.259s.561,7.38,1.419,10.949A6.061,6.061,0,0,1,990.121,272.512Z" transform="translate(-946.12 -242.099)"/>
      <path id="Path_557" data-name="Path 557" d="M1024.918,275.384c-.61,1.774-2.2,3.4-3.917,3.037s-2.554-2.313-3.839-3.548a5.237,5.237,0,0,0-6.024-.837,6.067,6.067,0,0,0-2.959,5.4,5.826,5.826,0,0,1,2.625-3.229,5.215,5.215,0,0,1,6.017.844c1.284,1.22,2.129,3.179,3.846,3.548s3.307-1.263,3.917-3.037a15.617,15.617,0,0,0,.61-3.207,9.98,9.98,0,0,1-.277,1.029Z" transform="translate(-964.142 -249.158)"/>
      <path id="Path_558" data-name="Path 558" d="M1037.284,253.759c-1.256,3.307-3.548,6.159-4.257,9.636-.156.71-.241,1.419-.326,2.129.759-3.463,3.023-6.308,4.257-9.608a16.828,16.828,0,0,0,1.029-4.626A16.16,16.16,0,0,1,1037.284,253.759Z" transform="translate(-971.264 -242.725)"/>
    </g>
    <circle id="Ellipse_62" data-name="Ellipse 62" cx="0.277" cy="0.277" r="0.277" transform="translate(557.819 209.744)" fill="#e6e8ec"/>
    <path id="Path_559" data-name="Path 559" d="M497.7,586.295s7.805-5.6,15.916-2.129c0,0-2.271,4.811-12.347,4.747Z" transform="translate(-162.606 -220.577)" fill="#fbba23"/>
    <path id="Path_560" data-name="Path 560" d="M496.2,588.09s-2.086,9.388,4.258,15.476c0,0,3.548-3.974-.476-13.22Z" transform="translate(-162.073 -222.046)" fill="#fbba23"/>
    <path id="Path_561" data-name="Path 561" d="M481.75,573.474s.291-7.926,18.236-5.989c0,0,.284,5.1-5.89,7.756S484.979,575.972,481.75,573.474Z" transform="translate(-157.974 -215.973)" fill="#fbba23"/>
    <path id="Path_562" data-name="Path 562" d="M478.834,576s-7.451,2.711-.085,19.194c0,0,4.967-1.306,5.563-8S482.2,578.327,478.834,576Z" transform="translate(-156.158 -218.535)" fill="#fbba23"/>
    <path id="Path_563" data-name="Path 563" d="M465.347,555.723s-1.518-12.964,16.775-12.333c0,0,1.746,11.722-13.432,15.334Z" transform="translate(-153.201 -209.058)" fill="#fbba23"/>
    <path id="Path_564" data-name="Path 564" d="M447.58,535.938s1.937-14.837,20.337-11.141c0,0,.553,12.773-17.229,14.539Z" transform="translate(-148.05 -203.493)" fill="#fbba23"/>
    <path id="Path_565" data-name="Path 565" d="M434.35,515.117s3.633-14.547,21.862-10.906c0,0-3.8,13.071-20.578,13.482Z" transform="translate(-144.208 -197.516)" fill="#fbba23"/>
    <path id="Path_566" data-name="Path 566" d="M421.76,494.524s3.548-15.057,21.124-11.247c0,0-5.279,14.376-19.868,13.745Z" transform="translate(-140.552 -191.427)" fill="#fbba23"/>
    <path id="Path_567" data-name="Path 567" d="M413.39,473.545s2.448-18.329,18.882-14.937c0,0-4.087,16.76-17.569,17.541Z" transform="translate(-138.121 -184.321)" fill="#fbba23"/>
    <path id="Path_568" data-name="Path 568" d="M405.35,450.157s3.072-18.513,19.712-13.8c0,0-5.783,17.6-18.449,16.32Z" transform="translate(-135.786 -177.757)" fill="#fbba23"/>
    <path id="Path_569" data-name="Path 569" d="M400.08,426.391s5.293-18.6,18.038-18.591c0,0-5.393,19.634-16.831,22.231Z" transform="translate(-134.255 -169.687)" fill="#fbba23"/>
    <path id="Path_570" data-name="Path 570" d="M396.45,403.671s5.677-22.359,16.093-21.053c0,0-3.867,17.073-15.611,24.481Z" transform="translate(-133.201 -162.357)" fill="#fbba23"/>
    <path id="Path_571" data-name="Path 571" d="M393.86,378.263s5.407-18.662,15.611-19.783c0,0-3.47,18.286-15.192,24.559Z" transform="translate(-132.449 -155.363)" fill="#fbba23"/>
    <path id="Path_572" data-name="Path 572" d="M391.19,354.267s6.918-18.733,13.66-19.407c0,0-2.618,18.286-12.872,22.409Z" transform="translate(-131.674 -148.504)" fill="#fbba23"/>
    <path id="Path_573" data-name="Path 573" d="M389.13,330.652s3.924-20.216,10.6-22.132c0,0-.291,16.42-9.863,23.6Z" transform="translate(-131.075 -140.854)" fill="#fbba23"/>
    <path id="Path_574" data-name="Path 574" d="M384.42,302.647s4.321-16.157,9.693-18.8c0,0-.362,18.861-8.274,22.65Z" transform="translate(-129.708 -133.69)" fill="#fbba23"/>
    <path id="Path_575" data-name="Path 575" d="M379.862,279.561,377.79,251.44s11.006,20.862,2.987,33.038Z" transform="translate(-127.782 -124.277)" fill="#fbba23"/>
    <path id="Path_576" data-name="Path 576" d="M364.014,243.321s-8.132-20.273-9.934-21.351c0,0,14.9,12.773,14.192,29.994Z" transform="translate(-120.896 -115.719)" fill="#fbba23"/>
    <path id="Path_577" data-name="Path 577" d="M459.748,560.663s-13-1.192-11.914,17.073c0,0,11.765,1.419,15-13.808Z" transform="translate(-148.105 -214.076)" fill="#fbba23"/>
    <path id="Path_578" data-name="Path 578" d="M441.293,540.08s-14.951.525-13.014,19.159c0,0,12.631,1.76,16.1-15.767Z" transform="translate(-142.395 -208.103)" fill="#fbba23"/>
    <path id="Path_579" data-name="Path 579" d="M425.259,521.136s-13.816-5.847-21.869,10.906c0,0,12.737,4.825,23.168-8.3Z" transform="translate(-135.217 -202.314)" fill="#fbba23"/>
    <path id="Path_580" data-name="Path 580" d="M412.459,499.112s-14.156-6.237-21.7,10.119c0,0,14.667,4.428,22.941-7.621Z" transform="translate(-131.549 -195.866)" fill="#fbba23"/>
    <path id="Path_581" data-name="Path 581" d="M403.824,478.273s-13.858-12.262-24.034,1.064c0,0,14.064,9.984,24.757,1.753Z" transform="translate(-128.363 -188.658)" fill="#fbba23"/>
    <path id="Path_582" data-name="Path 582" d="M396.569,453.36s-13.958-12.553-24.019,1.519c0,0,15.511,10.14,24.6,1.2Z" transform="translate(-126.26 -181.421)" fill="#fbba23"/>
    <path id="Path_583" data-name="Path 583" d="M392.567,428.061s-10.991-15.909-23.047-11.807c0,0,11.41,16.86,23.076,15.611Z" transform="translate(-125.38 -171.945)" fill="#fbba23"/>
    <path id="Path_584" data-name="Path 584" d="M388.288,405.307S377.056,385.155,367.32,389.1c0,0,8.132,15.5,21.373,19.648Z" transform="translate(-124.741 -164.107)" fill="#fbba23"/>
    <path id="Path_585" data-name="Path 585" d="M386.08,379.258s-11.353-15.76-21.33-13.4c0,0,9.395,16.058,22.551,18.038Z" transform="translate(-123.995 -157.437)" fill="#fbba23"/>
    <path id="Path_586" data-name="Path 586" d="M386.308,354.38s-9.012-17.825-15.788-17.74c0,0,4.69,17.867,15.341,20.8Z" transform="translate(-125.671 -149.021)" fill="#fbba23"/>
    <path id="Path_587" data-name="Path 587" d="M382.662,331.848s-9.934-18.023-16.9-17.789c0,0,5.336,15.533,16.654,19.421Z" transform="translate(-124.288 -142.462)" fill="#fbba23"/>
    <path id="Path_588" data-name="Path 588" d="M381.131,305.111s-7.5-14.944-13.29-16.441c0,0,4.165,18.4,12.687,20.507Z" transform="translate(-124.893 -135.09)" fill="#fbba23"/>
    <path id="Path_589" data-name="Path 589" d="M372.823,280.962,356.46,258s4.854,23.076,18.79,27.354Z" transform="translate(-121.588 -126.183)" fill="#fbba23"/>
    <path id="Path_590" data-name="Path 590" d="M355.349,249.318S336.9,237.6,336.19,235.63c0,0,9.835,17.03,26.893,19.436Z" transform="translate(-115.701 -119.686)" fill="#fbba23"/>
    <path id="Path_591" data-name="Path 591" d="M350.462,239.417S329.075,220.379,323.81,220.6c0,0,17.03.128,27.106,17.74Z" transform="translate(-112.106 -115.32)" fill="#fbba23"/>
    <path id="Path_592" data-name="Path 592" d="M378.838,295.346l-.752.128c-5.038-30.193-11.353-47.911-17.846-49.884l.22-.71C367.322,246.952,373.672,264.415,378.838,295.346Z" transform="translate(-122.685 -122.372)" fill="#444053"/>
    <path id="Path_593" data-name="Path 593" d="M394.51,387.417l-1.128.142c-.348-2.838-.639-5.719-.88-8.6-2.044-25.077-4.605-48.074-7.472-65.282l.624-.837c2.838,17.236,5.939,40.915,7.99,65.991C393.871,381.734,394.169,384.622,394.51,387.417Z" transform="translate(-129.885 -142.109)" fill="#444053"/>
    <path id="Path_594" data-name="Path 594" d="M490.031,551.119c-.206-.085-20.535-8.238-42.1-28.738a164.891,164.891,0,0,1-31.541-41.241c-10.339-19.159-17.108-42.944-19.961-66.19l1.206.511c6.386,52.169,31.6,87.038,51.3,105.771,21.351,20.315,41.454,28.383,41.653,28.476Z" transform="translate(-133.195 -171.763)" fill="#444053"/>
    <g id="Group_134" data-name="Group 134" transform="translate(313.409 70.85)" opacity="0.7">
      <path id="Path_595" data-name="Path 595" d="M548.25,573.9s9.125-3.016,15.824,2.689c0,0-3.6,3.924-13.2.859Z" transform="translate(-490.696 -288.544)" fill="#fbba23"/>
      <path id="Path_596" data-name="Path 596" d="M545.863,574.25s-4.783,8.345-.525,16.051c0,0,4.563-2.746,3.477-12.773Z" transform="translate(-489.337 -288.876)" fill="#fbba23"/>
      <path id="Path_597" data-name="Path 597" d="M536.46,557.032s2.64-7.486,19.159-.291c0,0-1.249,4.967-7.933,5.677S538.8,560.374,536.46,557.032Z" transform="translate(-487.272 -282.884)" fill="#fbba23"/>
      <path id="Path_598" data-name="Path 598" d="M532.481,558s-7.926.376-5.79,18.3c0,0,5.095.227,7.685-5.975S535,561.165,532.481,558Z" transform="translate(-484.328 -284.157)" fill="#fbba23"/>
      <path id="Path_599" data-name="Path 599" d="M525.35,535.561s2.413-12.829,19.684-6.784c0,0-1.824,11.708-17.385,10.644Z" transform="translate(-484.045 -275.2)" fill="#fbba23"/>
      <path id="Path_600" data-name="Path 600" d="M514.34,511.412s6.266-13.589,22.707-4.584c0,0-3.257,12.326-20.77,8.749Z" transform="translate(-480.848 -268.401)" fill="#fbba23"/>
      <path id="Path_601" data-name="Path 601" d="M507.93,487.753s7.805-12.808,24.126-3.91c0,0-7.522,11.353-23.658,6.784Z" transform="translate(-478.986 -261.707)" fill="#fbba23"/>
      <path id="Path_602" data-name="Path 602" d="M502,464.31s7.848-13.326,23.523-4.456c0,0-9.317,12.155-23.076,7.209Z" transform="translate(-477.264 -254.769)" fill="#fbba23"/>
      <path id="Path_603" data-name="Path 603" d="M499.83,441.771s7.805-16.782,22.451-8.643c0,0-8.891,14.781-22,11.517Z" transform="translate(-476.634 -247.245)" fill="#fbba23"/>
      <path id="Path_604" data-name="Path 604" d="M499.2,417.026s8.444-16.76,22.927-7.309c0,0-10.764,15.086-22.48,10.055Z" transform="translate(-476.451 -240.254)" fill="#fbba23"/>
      <path id="Path_605" data-name="Path 605" d="M500.76,393.186s10.587-16.179,22.749-12.382c0,0-10.992,17.144-22.707,16.221Z" transform="translate(-476.904 -232.529)" fill="#fbba23"/>
      <path id="Path_606" data-name="Path 606" d="M503.516,370.2s12.063-19.663,21.628-15.306c0,0-8.777,15.143-22.175,18.726Z" transform="translate(-477.546 -224.988)" fill="#fbba23"/>
      <path id="Path_607" data-name="Path 607" d="M508.576,345.274s10.715-16.2,20.777-14.241c0,0-8.749,16.427-21.813,18.932Z" transform="translate(-478.873 -218.194)" fill="#fbba23"/>
      <path id="Path_608" data-name="Path 608" d="M513.565,321.374s12.184-15.831,18.818-14.469c0,0-7.94,16.675-18.953,17.569Z" transform="translate(-480.583 -211.211)" fill="#fbba23"/>
      <path id="Path_609" data-name="Path 609" d="M518.35,297.873s9.757-18.13,16.711-17.974c0,0-5.166,15.611-16.448,19.6Z" transform="translate(-482.012 -203.392)" fill="#fbba23"/>
      <path id="Path_610" data-name="Path 610" d="M522.6,269.625s8.927-14.135,14.844-15.064c0,0-5.961,17.9-14.639,19.159Z" transform="translate(-483.246 -196.033)" fill="#fbba23"/>
      <path id="Path_611" data-name="Path 611" d="M524.548,245.044l6.386-27.454s4.307,23.182-6.954,32.449Z" transform="translate(-483.647 -185.297)" fill="#fbba23"/>
      <path id="Path_612" data-name="Path 612" d="M523.043,205.735s-1.731-21.777-3.143-23.345c0,0,10.452,16.647,4.612,32.854Z" transform="translate(-482.462 -175.074)" fill="#fbba23"/>
      <path id="Path_613" data-name="Path 613" d="M517.978,538.393s-12.063-5.017-16.448,12.773c0,0,10.793,4.889,18.449-8.721Z" transform="translate(-477.127 -278.273)" fill="#fbba23"/>
      <path id="Path_614" data-name="Path 614" d="M506.27,513.5s-14.426-3.945-18.13,14.447c0,0,11.531,5.442,20.067-10.261Z" transform="translate(-473.239 -271.131)" fill="#fbba23"/>
      <path id="Path_615" data-name="Path 615" d="M497.416,490.87s-11.446-9.693-24.126,3.91c0,0,10.722,8.394,24.587-1.036Z" transform="translate(-468.926 -263.689)" fill="#fbba23"/>
      <path id="Path_616" data-name="Path 616" d="M491.821,465.947s-11.651-10.168-23.721,3.221c0,0,12.68,8.586,24.168-.461Z" transform="translate(-467.419 -256.35)" fill="#fbba23"/>
      <path id="Path_617" data-name="Path 617" d="M490.4,443.032s-9.586-15.831-23.26-6.138c0,0,10.452,13.723,23.111,9.04Z" transform="translate(-467.14 -248.074)" fill="#fbba23"/>
      <path id="Path_618" data-name="Path 618" d="M490.816,417.114s-9.594-16.129-23.416-5.677c0,0,11.793,14.3,23.132,8.465Z" transform="translate(-467.216 -240.57)" fill="#fbba23"/>
      <path id="Path_619" data-name="Path 619" d="M495.252,390.858s-5.755-18.449-18.492-18.13c0,0,5.882,19.5,17.385,21.806Z" transform="translate(-469.934 -230.35)" fill="#fbba23"/>
      <path id="Path_620" data-name="Path 620" d="M497.969,367.8s-4.733-22.579-15.2-21.706c0,0,3.151,17.222,14.561,25.112Z" transform="translate(-471.679 -222.608)" fill="#fbba23"/>
      <path id="Path_621" data-name="Path 621" d="M503.644,342.159S497.492,323.71,487.26,323c0,0,4.2,18.137,16.164,23.934Z" transform="translate(-472.983 -215.909)" fill="#fbba23"/>
      <path id="Path_622" data-name="Path 622" d="M511.281,318.4s-3.3-19.7-9.8-21.621c0,0-.837,18.449,8.465,24.424Z" transform="translate(-477.108 -208.295)" fill="#fbba23"/>
      <path id="Path_623" data-name="Path 623" d="M514.562,295.807s-4.137-20.166-10.842-22c0,0,.468,16.413,10.126,23.494Z" transform="translate(-477.763 -201.624)" fill="#fbba23"/>
      <path id="Path_624" data-name="Path 624" d="M520.956,269.823s-2.718-16.5-7.805-19.663c0,0-1.5,18.811,6.01,23.359Z" transform="translate(-480.467 -194.756)" fill="#fbba23"/>
      <path id="Path_625" data-name="Path 625" d="M520.195,244.3,511.4,217.51s-2.235,23.48,9.8,31.711Z" transform="translate(-479.947 -185.274)" fill="#fbba23"/>
      <path id="Path_626" data-name="Path 626" d="M513,208.886S498.874,192.21,498.81,190.11c0,0,4.321,19.159,19.868,26.553Z" transform="translate(-476.337 -177.316)" fill="#fbba23"/>
      <path id="Path_627" data-name="Path 627" d="M511.258,197.98s-14.752-24.545-19.868-25.9c0,0,16.235,5.194,20.578,25.006Z" transform="translate(-474.183 -172.08)" fill="#fbba23"/>
      <path id="Path_628" data-name="Path 628" d="M521.632,259.836l-.752-.106c4.172-30.321,3.392-49.125-2.2-52.935l.433-.624C525.038,210.208,525.911,228.756,521.632,259.836Z" transform="translate(-482.108 -181.98)" fill="#444053"/>
      <path id="Path_629" data-name="Path 629" d="M503.461,352.451l-1.121-.206c.511-2.8,1.086-5.677,1.724-8.473,5.506-24.545,9.934-47.265,12.283-64.572l.844-.61c-2.384,17.307-6.5,40.83-12.02,65.4C504.547,346.831,503.965,349.662,503.461,352.451Z" transform="translate(-477.363 -203.012)" fill="#444053"/>
      <path id="Path_630" data-name="Path 630" d="M550.355,537.087c-.17-.135-17.158-13.979-31.641-39.957a164.682,164.682,0,0,1-17.874-48.763c-4.172-21.373-3.548-46.123.632-69.128l1,.844c-9.4,51.715,4.258,92.5,17.505,116.244,14.341,25.744,31.129,39.439,31.3,39.574Z" transform="translate(-476.104 -232.242)" fill="#444053"/>
    </g>
    <path id="Path_631" data-name="Path 631" d="M262.084,451.6a26.966,26.966,0,0,1-5.173,1.547,51.988,51.988,0,0,1-9.388.887c.092.83.163,1.6.234,2.306.17,1.93.27,3.257.27,3.257l-3.328-.227L217.252,457.5,201.2,455.124a29.951,29.951,0,0,0,2.519,2.959,13.278,13.278,0,0,0,3.207,2.491s14.483,11.729,16.987,11.836c.355,0,.468.355.412.915,6.1,0,25.048.887,19.79,11.438a8.409,8.409,0,0,1-4.307,4.194c-6.081,2.576-15.256-2.058-19.982-4.9-.461.9-.9,1.739-1.291,2.455-.8,1.511-1.362,2.512-1.362,2.512l-.475-.341-24.353-17.342-5.336-4.527a18.618,18.618,0,0,1-4.619-.8h0l-.71-.227a1.363,1.363,0,0,0-.078.192,9.937,9.937,0,0,0-.433,1.7v.255a19.948,19.948,0,0,0-.2,1.994c0,.454-.035.937-.035,1.419-.043,9.664,3.832,25.2,3.832,25.2s10.041,25.609,6.479,31.52h0a2.659,2.659,0,0,1-.71.766,7.049,7.049,0,0,0-2.4,4.449c-1.327,6.273,1,15.845,1,15.845s-.213.355-.575.908a27.441,27.441,0,0,1-2.64,3.548c-.149.17-.305.348-.468.511a12.365,12.365,0,0,1-1.419,1.277c.092.277.192.56.291.866s.227.781.326,1.206a17.3,17.3,0,0,1-.887,10.438,28.758,28.758,0,0,0-1.788,7.5h0a57.374,57.374,0,0,0,.362,14.121c-.106-.057-.2-.113-.305-.163q-11.772-6.152-23.211-12.851c-2.235-1.291-4.456-2.611-6.663-3.938q-4.073-2.455-8.111-4.967-5.322-3.321-10.644-6.8l-1.66-1.107-.639-.433c-.9-.6-1.788-1.206-2.682-1.817a136.271,136.271,0,0,1-10.034-14.9c-.5-.9-.958-1.76-1.334-2.547v-.043l-.241-.518-1-.355h0c-1.88-.66-3.073-1.121-3.073-1.121h0a34.812,34.812,0,0,0,1.235-9.721,29.44,29.44,0,0,0-9.1-21.727c-10.757-10.168-12.24-20.209-12.4-24.062v-.71a8.894,8.894,0,0,1,.043-.972l.823-.788c-2.086-.419-4.045-.61-4.045-.61s7.138-25.829,19.159-34.45c5.961-4.258,10.921-11.353,14.426-17.442a264.338,264.338,0,0,1,21.486-31.5l2.164-2.732.632-.8.135-.163.17-.227q-.44-.667-.894-1.32l-.2-.291a7.222,7.222,0,0,1-1.625-4.534v-.412a5.448,5.448,0,0,1,.156-.837.8.8,0,0,0,.085.128c1.015-2.952,4.924-4.257,7.805-5.889,6.791-3.818,9.686-12.169,11.14-19.939,1.128-6.046,2.065-12.822,6.748-16.7,3.023-2.5,7.1-3.321,10.154-5.8a19.031,19.031,0,0,0,4.314-5.542c.71-1.206,1.32-2.455,1.98-3.661,3.023-5.464,7-10.544,12.255-13.816s11.928-4.541,17.69-2.342c2.221.844,4.258,2.129,6.386,3.073a24.877,24.877,0,0,0,4.059,1.263c4.336,1.015,8.9,1.277,12.971,3.087,6.62,2.938,10.928,9.438,14.859,15.611,2.037,3.193,5.237,7.862,7.053,12.56v-.49a18.017,18.017,0,0,1,1.419,6.528,9.937,9.937,0,0,1-.305,2.838,8.13,8.13,0,0,1-4.414,5.059l-.334.163a14.168,14.168,0,0,1-1.377.617c-.071.39-.149.788-.234,1.171-.035.163-.078.334-.121.5-.092.4-.2.788-.312,1.178a27.3,27.3,0,0,1-8.515,13.014,28.618,28.618,0,0,1-9.523,5.393c-.248.085-.511.149-.759.227a6.117,6.117,0,0,1-.894,1.653,4.778,4.778,0,0,1-.965.93,5.857,5.857,0,0,1-.71.412.953.953,0,0,1-.192.092c-2.555,1.15-6.053.248-8.515-1.469-.128-.085-.248-.185-.369-.277a8.147,8.147,0,0,1-.135,1.27c-.071.44-.121.71-.2,1.079s-.106.546-.156.809-.085.44-.128.646l-.085.362a55.745,55.745,0,0,1-7.9,19.23,27.407,27.407,0,0,1-1.8,2.42l-1.76,2.682v.362c.334,6.173-1.7,11.928-4.563,16.881a49.217,49.217,0,0,1-3.158,4.747l.4.234c3.974,2.264,11.808,6.287,16.76,5.946,0,0,18.733,2.42,20.9,1.206.3-.17.589.064.859.568,3.03-1.845,10-5.755,15.5-6.273,3.846-.369,6.975.915,7.557,5.677S266.1,449.88,262.084,451.6Z" transform="translate(-44 -141.276)" fill="url(#linear-gradient-2)"/>
    <path id="Path_632" data-name="Path 632" d="M171.574,640.167a15.554,15.554,0,0,1,1.022,13.645c-1.724,4.321-1.916,9.707-1.738,13.66-2.235-1.292-4.456-2.611-6.663-3.938q-4.073-2.455-8.111-4.967-5.322-3.321-10.644-6.8l-1.66-1.107-.639-.433a1.334,1.334,0,0,0-.206-.284,128.834,128.834,0,0,1-9.785-14.986c-.6-1.107-1.114-2.129-1.526-3.065v-.05c-.71-1.575-1.043-2.838-.83-3.413a7,7,0,0,1,3.442-4.258c4.087-2.129,10.644-.163,17.129,2.966a118.458,118.458,0,0,1,15.994,9.743l.575.419.057.043c2.129,1.511,3.363,2.512,3.363,2.512A3.391,3.391,0,0,1,171.574,640.167Z" transform="translate(-56.032 -232.264)" fill="#fbbebe"/>
    <path id="Path_633" data-name="Path 633" d="M170.068,638.84A15.554,15.554,0,0,1,171.09,652.5c-1.724,4.321-1.916,9.707-1.738,13.667q-3.349-1.951-6.663-3.945-4.08-2.455-8.111-4.967c-3.548-2.221-7.1-4.492-10.608-6.812l-1.66-1.107-.639-.433a1.537,1.537,0,0,0-.206-.284,127.557,127.557,0,0,1-9.785-14.987c-.6-1.107-1.114-2.129-1.526-3.065v-.043c-.71-1.582-1.043-2.838-.83-3.42a7.018,7.018,0,0,1,3.441-4.258c4.087-2.129,10.644-.163,17.129,2.966a118.452,118.452,0,0,1,15.994,9.743l.575.419.057.043c2.129,1.511,3.363,2.512,3.363,2.512S169.941,638.634,170.068,638.84Z" transform="translate(-55.605 -231.88)" opacity="0.05"/>
    <path id="Path_634" data-name="Path 634" d="M203.861,657.358a17.329,17.329,0,0,1-1,3.548,28.056,28.056,0,0,0-1.611,6.386h0a56.425,56.425,0,0,0,.057,13.957Q189.535,675.1,178.1,668.4c-2.235-1.291-4.456-2.611-6.663-3.938-.5-3.775-1.206-7.1-2.008-7.912a141.3,141.3,0,0,1-10.772-16.441c-.482-.852-.9-1.675-1.291-2.455v-.036c-.149-.312-.291-.61-.426-.908-.958-2.058-1.469-3.661-1.213-4.435a8.188,8.188,0,0,1,2.923-4.215c6.294-4.6,19.379,1.625,29.426,7.805l.248.149c1.9,1.185,3.7,2.356,5.322,3.449l.944.639c4.158,2.838,6.918,5.045,6.918,5.045a15.106,15.106,0,0,1,1.639,3.392,17.983,17.983,0,0,1,.589,2.058,17.152,17.152,0,0,1,.128,6.762Z" transform="translate(-63.272 -233.191)" fill="#fbbebe"/>
    <path id="Path_635" data-name="Path 635" d="M133.182,634.94c5.159,1.8,12.773,4.194,16.916,4.258a8.01,8.01,0,0,0,1.284-.064h0c2.916-.4,11.907.241,20.159.986,3.307.291,6.493.6,9.125.866l6.613.709v-2.554c-1.838-1.263-3.974-2.668-6.259-4.087-10.083-6.23-23.331-12.6-29.675-7.962-8.934-4.314-18-6.386-20.578,1.292C130.472,629.384,131.557,631.924,133.182,634.94Z" transform="translate(-56.03 -232.252)" opacity="0.1"/>
    <path id="Path_636" data-name="Path 636" d="M99.254,552.58c.142,3.825,1.575,13.752,11.843,23.778,13.1,12.772,7.515,31.137,7.515,31.137s15.611,6.131,22.345,6.294a8.009,8.009,0,0,0,1.284-.064c4.038-.561,20.088.922,29.313,1.852l6.613.71v-54.3L105.832,544.42l-6.549,6.528a12.769,12.769,0,0,0-.028,1.632Z" transform="translate(-46.887 -209.363)" fill="#5c5c8e"/>
    <path id="Path_637" data-name="Path 637" d="M135.46,630.91" transform="translate(-57.406 -234.481)" fill="none"/>
    <g id="Group_135" data-name="Group 135" transform="translate(52.353 335.092)" opacity="0.1">
      <path id="Path_638" data-name="Path 638" d="M196.995,643.942l1.185.121v.582l-6.613-.71c-6.62-.667-16.739-1.618-23.416-1.895C172.769,641.628,188.061,643.04,196.995,643.942Z" transform="translate(-119.252 -572.784)"/>
      <path id="Path_639" data-name="Path 639" d="M99.282,551l6.549-6.528,4.371,1.057L104.746,551a12.775,12.775,0,0,0,0,1.632c.142,3.825,1.575,13.745,11.843,23.778,13.1,12.773,7.514,31.13,7.514,31.13s12.914,5.073,20.315,6.117a17.559,17.559,0,0,0-2.129.121,8.009,8.009,0,0,1-1.284.064c-6.734-.17-22.345-6.3-22.345-6.3s5.584-18.357-7.515-31.13c-10.317-10.034-11.751-19.953-11.893-23.757A12.77,12.77,0,0,1,99.282,551Z" transform="translate(-99.24 -544.47)"/>
    </g>
    <path id="Path_640" data-name="Path 640" d="M303,498.927s21.876-15.171,23.473-1.519S303,509.145,303,509.145Z" transform="translate(-106.062 -194.056)" fill="#fbbebe"/>
    <path id="Path_641" data-name="Path 641" d="M243.309,487.7s11.829,7.805,18.378,7.344c0,0,17.882,2.4,19.961,1.2S285,513.572,285,513.572l-29.384-2.079-18.847-2.874s-9.423-5.748-9.423-10.7S243.309,487.7,243.309,487.7Z" transform="translate(-84.092 -192.891)" fill="#f7cddd"/>
    <path id="Path_642" data-name="Path 642" d="M243.309,487.7s11.829,7.805,18.378,7.344c0,0,17.882,2.4,19.961,1.2S285,513.572,285,513.572l-29.384-2.079-18.847-2.874s-9.423-5.748-9.423-10.7S243.309,487.7,243.309,487.7Z" transform="translate(-84.092 -192.891)" fill="#fbba23"/>
    <path id="Path_643" data-name="Path 643" d="M272.041,543.33s26.6-1.1,20.642,11.289-26.113-2.654-26.113-2.654Z" transform="translate(-95.482 -209.039)" fill="#fbbebe"/>
    <path id="Path_644" data-name="Path 644" d="M236.58,489.044s21.557-16.129,18.527-35.77-18.527,15.015-18.527,15.015Z" transform="translate(-86.773 -181.143)" fill="#5c5c8e"/>
    <path id="Path_645" data-name="Path 645" d="M245,369.5a27.276,27.276,0,0,0,17.03,25.254,24.451,24.451,0,0,0,3.505,1.164,27.66,27.66,0,0,0,3.867.71c.937.092,1.88.142,2.838.142a26.857,26.857,0,0,0,8.948-1.554A27.248,27.248,0,1,0,245,369.5Z" transform="translate(-89.218 -150.642)" fill="#fbbebe"/>
    <path id="Path_646" data-name="Path 646" d="M99.254,552.58c2.441.447,5.457,1.27,5.457,2.533,0,2.129,34.06,13.631,34.06,13.631s-1.277,2.973,2.129,8.089S172,611.327,172,611.327l-.092.866-.355,3.385-1.689,16.186s10.644-3.832,14.05-3.406a4.637,4.637,0,0,0,3.4-1.589,16.318,16.318,0,0,0-2.221-5.442s-2.76-2.172-6.926-5.045v-54.29L105.832,544.42l-6.549,6.528a12.769,12.769,0,0,0-.028,1.632Z" transform="translate(-46.887 -209.363)" opacity="0.1"/>
    <path id="Path_647" data-name="Path 647" d="M94.94,506.231s8.515.844,8.515,2.98,34.06,13.631,34.06,13.631-1.277,2.973,2.129,8.089,31.1,34.493,31.1,34.493l-2.129,20.436s10.644-3.832,14.05-3.406c1.526.192,3.207-1.22,4.6-2.838a29.716,29.716,0,0,0,3.073-4.378s-3.839-16.193,1.277-20.024-5.535-31.931-5.535-31.931-4.818-19.982-3.4-28.554a10.425,10.425,0,0,1,.412-1.682.51.51,0,0,1,.064-.192c3.037-8.189,35.706-76.884,35.706-76.884a48.906,48.906,0,0,0-.412-5.826c-.064-.539-.149-1.1-.255-1.66a28.533,28.533,0,0,0-.66-3.03c-.185-.653-.383-1.277-.617-1.873-1.008-2.6-2.554-4.591-4.868-4.641,0,0-2.555-2.838-8.515-3.591-4.4-.575-10.644,0-19.159,3.591-20.01,8.515-24.694,8.941-24.694,8.941l-10.062,13.177-2.072,2.711a260.616,260.616,0,0,0-20.514,31.144c-3.349,6.017-8.089,13.035-13.773,17.25C101.759,480.686,94.94,506.231,94.94,506.231Z" transform="translate(-45.638 -166.015)" fill="#fbba23"/>
    <path id="Path_648" data-name="Path 648" d="M183.976,482.3s-28.426,7.025-39.446,24.75Z" transform="translate(-60.04 -191.323)" opacity="0.1"/>
    <path id="Path_649" data-name="Path 649" d="M186.045,526.18s-5.372,36.09-3.881,38.807S186.045,526.18,186.045,526.18Z" transform="translate(-70.893 -204.066)" opacity="0.1"/>
    <path id="Path_650" data-name="Path 650" d="M190.172,548.573c2.072,2.711,10.466,23.636,10.466,23.636l-2.427,35.132-2.129,20.436s10.644-3.832,14.057-3.406c1.519.192,3.207-1.213,4.6-2.838-2.214-11.971-6.94-37.012-7.805-37.495-1.128-.639-6.876-20.762-7.181-26.354s-8.309-18.194-8.309-18.194S188.092,545.862,190.172,548.573Z" transform="translate(-73.097 -207.931)" opacity="0.1"/>
    <path id="Path_651" data-name="Path 651" d="M201.724,476.075c.518,1.6,1.341,10.857,1.341,10.857.582,8.167,6.755,10.835,10.587,11.687a10.423,10.423,0,0,1,.412-1.682c2.555-7.231,35.77-77.075,35.77-77.075a45.861,45.861,0,0,0-1.327-10.516c-7.231-2.129-18.683,1.15-18.683,1.15-3.307-.433-14.1,21.032-14.1,21.032s-7.2,16.441-7.983,18.676,0,5.918-.319,7.2-3.683,2.384-4.158,4.151-.163,5.258-.483,5.9S201.171,474.479,201.724,476.075Z" transform="translate(-76.61 -169.927)" opacity="0.1"/>
    <path id="Path_652" data-name="Path 652" d="M205.326,474.278c.525,1.6,1.341,10.857,1.341,10.857a12.057,12.057,0,0,0,8.515,11.091,17.951,17.951,0,0,0,5.109,1.022l5.137,4.456,23.707,17.491s8.841-16.32,6.443-16.427-16.228-11.708-16.228-11.708c-4.258-2.256-8.472-9.806-10.438-13.681a11.03,11.03,0,0,0,.255-1.419c.859-7.231,18.74-34.912,18.74-34.912s6.911-8.139,9.608-23.218c.078-.341.128-.71.192-1.057a11.574,11.574,0,0,0,.142-1.419c.319-5.8-3.9-7.9-8.905-8.409h0a36.065,36.065,0,0,0-7.805.241,56.206,56.206,0,0,0-7.664,1.5c-2.129-.277-7.422,8.629-10.885,14.937h0c-1.866,3.42-3.207,6.1-3.207,6.1s-7.231,16.448-8.04,18.683,0,5.911-.319,7.2-3.683,2.384-4.151,4.151-.17,5.258-.49,5.9S204.787,472.682,205.326,474.278Z" transform="translate(-77.658 -169.407)" fill="#fbba23"/>
    <path id="Path_653" data-name="Path 653" d="M166.61,418.706c4.5,4.626,11.836,4.641,17.7,2.292s10.835-6.635,16.278-9.934c3.548-2.129,7.266-3.924,10.743-6.145h0c.511-.333,1.008-.667,1.49-1.008,4.016-2.838,7.486-6.479,11.637-9.083a18.109,18.109,0,0,1,9.352-2.995,10.6,10.6,0,0,1,4.463.937,5.776,5.776,0,0,1,.71.369,19.391,19.391,0,0,1,3.761,2.838c1.171,1.057,2.3,2.186,3.548,3.165.078-.341.128-.71.192-1.057a11.578,11.578,0,0,0,.142-1.419c.937.092,1.88.142,2.838.142a26.858,26.858,0,0,0,8.962-1.59,2,2,0,0,1,.064-.348c1.022-5.364,2.838-11.048,7.181-14.064,2.5-1.753,6.507-2.462,9.97-3.8a27.248,27.248,0,1,0-51.346,2.952c-4.4-.575-10.644,0-19.159,3.59-20.01,8.515-24.694,8.941-24.694,8.941l-10.005,13.2c1.086,1.66,2.313,3.3,2.427,5.237C173.089,414.519,169.626,417,166.61,418.706Z" transform="translate(-66.452 -150.648)" opacity="0.1"/>
    <path id="Path_654" data-name="Path 654" d="M265.706,370.555c-4.321,3.023-6.159,8.7-7.181,14.057a11.054,11.054,0,0,1-1.646,4.768c-2.292,2.973-6.9,2.129-9.9,0s-5.35-5.365-8.692-6.876c-4.442-2-9.657-.539-13.809,2.065s-7.628,6.244-11.644,9.076c-3.881,2.739-8.21,4.69-12.255,7.153-5.435,3.314-10.4,7.593-16.271,9.934s-13.2,2.342-17.69-2.285c3.016-1.675,6.479-4.151,6.244-7.734s-4.414-6.273-4.13-9.934,4.605-5.123,7.706-6.926c6.493-3.775,9.225-12.063,10.644-19.726,1.079-5.982,1.966-12.673,6.443-16.512,2.881-2.476,6.791-3.285,9.693-5.733,2.753-2.327,4.258-5.854,6.017-9.1,2.888-5.414,6.677-10.438,11.694-13.674s11.4-4.485,16.9-2.306c2.129.83,4.03,2.129,6.117,3.03,5.18,2.242,11.119,1.944,16.257,4.3,6.322,2.909,10.431,9.338,14.192,15.441,3.214,5.215,9.5,14.447,7.742,21.188C280.345,367.639,270.4,367.27,265.706,370.555Z" transform="translate(-66.455 -142.944)" fill="#7c5c5c"/>
    <g id="Group_136" data-name="Group 136" transform="translate(100.136 208.524)" opacity="0.1">
      <path id="Path_655" data-name="Path 655" d="M169.595,420.53a4.406,4.406,0,0,1,.149-.83c1.142,1.8,2.569,3.548,2.7,5.677a4.9,4.9,0,0,1-.121,1.455C171.056,424.788,169.417,422.879,169.595,420.53Z" transform="translate(-167.452 -381.666)"/>
      <path id="Path_656" data-name="Path 656" d="M183.021,419.823c5.868-2.356,10.835-6.635,16.271-9.934,4.045-2.462,8.373-4.414,12.255-7.153,4.016-2.838,7.493-6.478,11.644-9.076s9.367-4.066,13.809-2.065c3.342,1.511,5.677,4.712,8.692,6.876s7.607,3.009,9.9.035a10.933,10.933,0,0,0,1.646-4.761c1.022-5.364,2.838-11.041,7.181-14.064,4.7-3.278,14.639-2.909,16.441-9.828a10.643,10.643,0,0,0,.234-3.754c1.157,3.073,1.746,6.166,1.05,8.863-1.809,6.918-11.751,6.549-16.448,9.828-4.314,3.023-6.159,8.7-7.181,14.064a10.983,10.983,0,0,1-1.639,4.761c-2.3,2.973-6.911,2.129-9.934-.035s-5.35-5.364-8.692-6.876c-4.442-2-9.657-.532-13.809,2.065s-7.628,6.244-11.644,9.076c-3.881,2.746-8.21,4.69-12.255,7.153-5.435,3.321-10.4,7.593-16.271,9.934s-13.2,2.335-17.69-2.292a22.074,22.074,0,0,0,3.292-2.185C173.974,421.951,178.87,421.483,183.021,419.823Z" transform="translate(-166.58 -366.1)"/>
    </g>
    <path id="Path_657" data-name="Path 657" d="M690.9,329.764l-29.093-29.256a15.448,15.448,0,0,0-21.94-.149L457.181,481.5l-77.245-77.849a15.405,15.405,0,0,0-21.784-.156L328.746,432.59a15.611,15.611,0,0,0-.149,21.94L445.905,572.762a15.611,15.611,0,0,0,21.94.156L690.741,351.7a15.448,15.448,0,0,0,.163-21.933Z" transform="translate(-112.209 -137.178)" fill="#3acc6c"/>
    <g id="Group_137" data-name="Group 137" transform="translate(515.491 427.154)" opacity="0.5">
      <path id="Path_658" data-name="Path 658" d="M771.294,674.239s-21.7-1.306-19.159,13.9a3.711,3.711,0,0,0,1.93,3.9s0-1.128,2.221-.745a9.793,9.793,0,0,0,2.363.114,4.874,4.874,0,0,0,2.881-1.185h0s6.1-2.519,8.472-12.5c0,0,1.753-2.171,1.682-2.732l-3.661,1.568s1.256,2.64.27,4.832c0,0-.121-4.74-.823-4.627-.142,0-1.9.915-1.9.915s2.129,4.6.525,7.947c0,0,.617-5.677-1.2-7.614l-2.576,1.5s2.512,4.754.809,8.629c0,0,.44-5.946-1.355-8.26l-2.335,1.816s2.363,4.683.922,7.9c0,0-.184-6.926-1.419-7.451a14.17,14.17,0,0,0-2.356,2.547s1.618,3.4.617,5.194c0,0-.617-4.619-1.121-4.634,0,0-2.037,3.051-2.249,5.144a11.085,11.085,0,0,1,1.753-5.443,6.145,6.145,0,0,0-3.115,1.618s.312-2.129,3.619-2.356a14.308,14.308,0,0,1,2.129-2.455,13.337,13.337,0,0,0-5.279.61s1.753-2.043,5.875-1.114l2.306-1.88s-4.321-.6-6.159.057c0,0,2.129-1.8,6.784-.49l2.512-1.5a22.876,22.876,0,0,0-5.89-.511s2.32-1.249,6.628.107l1.8-.809s-2.7-.532-3.5-.61-.83-.305-.83-.305a9.388,9.388,0,0,1,5.073.568S771.358,674.48,771.294,674.239Z" transform="translate(-751.928 -674.211)" fill="#fbba23"/>
    </g>
    <g id="Group_138" data-name="Group 138" transform="translate(491.96 320.964)" opacity="0.5">
      <path id="Path_659" data-name="Path 659" d="M722.728,524.581s-11.02,18.74,3.7,23.367a3.718,3.718,0,0,0,4.357.057s-.986-.547.341-2.32a10.162,10.162,0,0,0,1.178-2.051,4.968,4.968,0,0,0,.248-3.108h0s.518-6.578-7.288-13.22c0,0-1.142-2.555-1.667-2.746l-.27,3.974s2.916.085,4.428,1.958c0,0-4.258-2.044-4.5-1.369-.043.142-.05,2.129-.05,2.129s5.081.17,7.323,3.136c0,0-4.768-3.122-7.33-2.384l.17,2.98s5.379-.085,8.061,3.193c0,0-5.1-3.094-7.976-2.547l.561,2.909s5.251,0,7.458,2.76c0,0-6.251-2.973-7.28-2.129a16.257,16.257,0,0,0,1.192,3.257s3.768.1,4.91,1.81c0,0-4.392-1.547-4.641-1.107,0,0,1.8,3.2,3.548,4.343a11.1,11.1,0,0,1-4.052-4.038,6.119,6.119,0,0,0,0,3.548s-1.781-1.263-.447-4.257a14.127,14.127,0,0,1-1.228-3.016,13.462,13.462,0,0,0-1.852,4.967s-1.022-2.491,1.675-5.748l-.624-2.909s-2.491,3.591-2.746,5.521c0,0-.646-2.7,2.647-6.266l-.2-2.916a22.613,22.613,0,0,0-3.122,5.01s-.064-2.633,3.094-5.854l.1-1.966s-1.7,2.171-2.129,2.838-.646.6-.646.6a9.331,9.331,0,0,1,2.8-4.258S722.97,524.631,722.728,524.581Z" transform="translate(-718.766 -524.56)" fill="#fbba23"/>
    </g>
    <g id="Group_139" data-name="Group 139" transform="translate(423.041 171.455)" opacity="0.5">
      <path id="Path_660" data-name="Path 660" d="M625.6,313.874s-11.013,18.747,3.7,23.367a3.7,3.7,0,0,0,4.357.057s-.986-.546.348-2.32a10.1,10.1,0,0,0,1.171-2.051,4.917,4.917,0,0,0,.248-3.108h0s.525-6.578-7.287-13.22c0,0-1.142-2.547-1.668-2.739l-.27,3.967s2.924.085,4.428,1.958c0,0-4.258-2.044-4.492-1.37-.05.142-.05,2.129-.05,2.129s5.074.17,7.316,3.136c0,0-4.768-3.122-7.33-2.384l.177,2.98s5.372-.085,8.054,3.193c0,0-5.1-3.087-7.976-2.547l.561,2.909s5.251,0,7.465,2.767c0,0-6.259-2.98-7.287-2.129a15.9,15.9,0,0,0,1.2,3.25s3.761.1,4.9,1.809c0,0-4.392-1.547-4.634-1.107,0,0,1.8,3.207,3.548,4.343a11.112,11.112,0,0,1-4.059-4.03,6.16,6.16,0,0,0,0,3.505s-1.781-1.263-.447-4.293a14.118,14.118,0,0,1-1.227-3.016,13.461,13.461,0,0,0-1.852,4.967s-1.022-2.491,1.682-5.748l-.631-2.909s-2.491,3.591-2.739,5.521c0,0-.653-2.7,2.64-6.266l-.2-2.916a22.613,22.613,0,0,0-3.122,5.01s-.064-2.633,3.094-5.847l.1-1.973s-1.7,2.171-2.129,2.838-.646.6-.646.6a9.38,9.38,0,0,1,2.838-4.257S625.841,313.959,625.6,313.874Z" transform="translate(-621.641 -313.86)" fill="#fbba23"/>
    </g>
    <g id="Group_140" data-name="Group 140" transform="translate(166.59 29.488)" opacity="0.5">
      <path id="Path_661" data-name="Path 661" d="M283.384,113.79s-41.014,29.8-13.865,53.41c0,0,3.073,5.592,9.267,4.179,0,0-1.6-2.086,2.9-4.641a23.114,23.114,0,0,0,4.414-3.292,11.424,11.424,0,0,0,3.427-6.386h0s7.252-13.581-3.257-35.054c0,0-.064-6.521-1.022-7.422l-4.258,8.245s6.166,2.9,7.649,8.316c0,0-7.245-8.366-8.345-7.1-.22.248-2.072,4.47-2.072,4.47s10.708,5.095,12.737,13.525c0,0-7.295-11.126-13.482-11.935l-2.406,6.535s11.573,4.832,14.256,14.341c0,0-8.033-11.353-14.688-12.879l-1.5,6.748s11.2,4.932,13.376,12.858c0,0-10.644-12.191-13.617-11.29,0,0-1.008,6.273-.475,8.068,0,0,7.962,3.725,8.813,8.444,0,0-7.955-7.394-8.891-6.684,0,0,.866,8.515,3.59,12.609,0,0-4.463-5.741-4.917-12.4,0,0-3.044,3.548-3.214,7.529,0,0-2.64-4.364,3.03-9.6,0,0-.4-6.67.2-7.593,0,0-6.329,4.378-8.607,8.919,0,0,.135-6.273,8.941-10.722l1.362-6.8s-8.664,5.343-11,9.225c0,0,1.128-6.386,11.481-10.942l2.3-6.422s-7.805,4.038-11.353,7.805c0,0,2.32-5.677,12.063-9.629l2.037-4.116s-5.677,3.051-7.2,4.073-1.951.71-1.951.71a21.826,21.826,0,0,1,9.977-6.507S283.86,114.123,283.384,113.79Z" transform="translate(-260.232 -113.79)" fill="#fbba23"/>
    </g>
    <g id="Group_141" data-name="Group 141" transform="translate(88.629 121.66)" opacity="0.5">
      <path id="Path_662" data-name="Path 662" d="M211.634,249.855s-53.056-22.309-60.01,17.917c0,0-3.626,6.273,1.419,11.453,0,0,1.086-2.782,6.216.092a26.376,26.376,0,0,0,5.79,2.356,13.028,13.028,0,0,0,8.245-.44h0s17.442-.944,32.123-23.771c0,0,6.287-3.889,6.606-5.35l-10.523.71s.809,7.7-3.548,12.318c0,0,3.867-11.949,2.008-12.283-.376-.071-5.556.61-5.556.61s1.341,13.39-5.677,20.315c0,0,6.514-13.617,3.676-20.074l-7.756,1.5s2.129,14.085-5.549,22.274c0,0,6.308-14.476,3.874-21.827l-7.436,2.5s1.8,13.773-4.626,20.578c0,0,5.606-17.463,2.966-19.868,0,0-6.684,2.711-8.118,4.258,0,0,1.064,9.934-3.023,13.518,0,0,2.512-12.063,1.27-12.56,0,0-7.77,5.847-10.14,10.892,0,0,2.959-7.706,9.161-12.063,0,0-5.208-.887-9.225,1.3,0,0,2.689-5.116,11.105-2.689,0,0,6.237-4.321,7.486-4.257,0,0-7.962-3.548-13.716-3.108,0,0,6.166-3.548,15.661,2.377l7.4-2.682s-10.282-5.272-15.441-5.251c0,0,6.855-2.654,17.371,4.726l7.593-1.568s-8.515-5.215-14.263-6.422c0,0,6.89-1.093,16.448,6.067l5.194-.433s-6.287-3.7-8.189-4.605-1.817-1.483-1.817-1.483a24.765,24.765,0,0,1,12.184,5.861S211.584,250.515,211.634,249.855Z" transform="translate(-150.363 -243.685)" fill="#fbba23"/>
    </g>
    <g id="Group_142" data-name="Group 142" transform="translate(66.601 42.733)" opacity="0.5">
      <path id="Path_663" data-name="Path 663" d="M170.85,161.226S152.039,117.749,125,137.689c0,0-5.726,1.66-5.677,7.593,0,0,2.228-1.036,3.633,3.6a22.039,22.039,0,0,0,2.129,4.69A10.686,10.686,0,0,0,130.233,158h0s10.9,9.381,32.641,4.179c0,0,5.953,1.27,6.975.589l-6.649-5.584s-3.9,5.038-9.139,5.279c0,0,9.1-4.9,8.189-6.152-.184-.255-3.647-2.8-3.647-2.8s-6.833,8.714-14.9,8.849c0,0,11.63-4.385,13.617-9.828l-5.464-3.548s-6.862,9.6-16.079,10.1c0,0,11.992-5,14.738-10.764l-5.84-2.718s-6.784,9.225-14.454,9.572c0,0,13.276-7.181,13.071-10.112,0,0-5.513-2.2-7.259-2.072,0,0-5.017,6.493-9.494,6.308,0,0,8.366-5.741,7.9-6.741,0,0-7.947-.951-12.226.71,0,0,6.145-2.9,12.311-1.944,0,0-2.59-3.5-6.209-4.47,0,0,4.52-1.511,8.132,4.719,0,0,6.166.993,6.883,1.731,0,0-2.7-6.663-6.386-9.665,0,0,5.677,1.419,7.954,10.339l5.925,2.633s-3.1-9-6.18-11.914c0,0,5.584,2.327,7.628,12.7l5.386,3.4s-2.086-7.947-4.8-11.942c0,0,4.712,3.278,6.315,12.978l3.335,2.7s-1.632-5.776-2.249-7.394-.227-1.916-.227-1.916a20.4,20.4,0,0,1,3.9,10.417S170.453,161.6,170.85,161.226Z" transform="translate(-119.32 -132.456)" fill="#fbba23"/>
    </g>
    <g id="Group_143" data-name="Group 143" transform="translate(463.047 78.079)" opacity="0.5">
      <path id="Path_664" data-name="Path 664" d="M699.733,198.313s-4.435-21.288-18.449-14.823a3.7,3.7,0,0,0-3.264,2.888s1.1-.263,1.306,1.951a10.178,10.178,0,0,0,.5,2.306,4.968,4.968,0,0,0,1.909,2.469h0s4.03,5.223,14.27,4.9c0,0,2.562,1.121,3.087.908l-2.476-3.122s-2.221,1.9-4.591,1.526c0,0,4.541-1.355,4.258-2.008-.064-.135-1.384-1.6-1.384-1.6s-3.874,3.285-7.529,2.6c0,0,5.627-.894,7.032-3.158l-2.129-2.093s-3.931,3.676-8.118,3.044c0,0,5.854-1.135,7.621-3.47l-2.37-1.774s-3.9,3.505-7.387,2.959c0,0,6.635-2,6.812-3.335a14.137,14.137,0,0,0-3.073-1.6s-2.838,2.455-4.846,1.958c0,0,4.257-1.8,4.18-2.3,0,0-3.484-1.164-5.563-.816a11.147,11.147,0,0,1,5.712.263,6.087,6.087,0,0,0-2.377-2.583s2.171-.263,3.222,2.838a13.912,13.912,0,0,1,2.931,1.419,13.654,13.654,0,0,0-1.973-4.967s2.427,1.157,2.618,5.386l2.42,1.731s-.561-4.328-1.675-5.932c0,0,2.292,1.568,2.249,6.386l2.129,2.029a22.757,22.757,0,0,0-1.05-5.812s1.809,1.909,1.632,6.386l1.249,1.526s-.192-2.746-.319-3.548.071-.887.071-.887a9.381,9.381,0,0,1,.788,5.052S699.52,198.441,699.733,198.313Z" transform="translate(-678.02 -182.268)" fill="#fbba23"/>
    </g>
    <g id="Group_144" data-name="Group 144" transform="translate(386.674 472.694)" opacity="0.5">
      <path id="Path_665" data-name="Path 665" d="M592.11,754.433s-4.428-21.288-18.449-14.823a3.711,3.711,0,0,0-3.271,2.888s1.1-.263,1.306,1.951a9.8,9.8,0,0,0,.511,2.306,4.968,4.968,0,0,0,1.9,2.469h0s4.03,5.223,14.277,4.9c0,0,2.562,1.121,3.08.908L589,751.907s-2.221,1.9-4.6,1.526c0,0,4.541-1.355,4.258-2.008-.057-.135-1.384-1.6-1.384-1.6s-3.874,3.285-7.529,2.6c0,0,5.634-.894,7.032-3.158l-2.129-2.129s-3.889,3.69-8.089,3.037c0,0,5.854-1.135,7.621-3.47l-2.37-1.774s-3.9,3.505-7.38,2.959c0,0,6.635-1.994,6.812-3.335a14.308,14.308,0,0,0-3.073-1.6s-2.838,2.455-4.854,1.958c0,0,4.258-1.8,4.179-2.3,0,0-3.484-1.164-5.563-.816a11.169,11.169,0,0,1,5.719.263,6.14,6.14,0,0,0-2.377-2.583s2.164-.262,3.214,2.838a13.944,13.944,0,0,1,2.938,1.419,13.652,13.652,0,0,0-1.973-4.967s2.427,1.157,2.611,5.386l2.427,1.731s-.568-4.328-1.682-5.932c0,0,2.3,1.568,2.256,6.386l2.129,2.029a22.559,22.559,0,0,0-1.057-5.812s1.816,1.909,1.639,6.386l1.249,1.526s-.2-2.746-.326-3.548.071-.88.071-.88a9.346,9.346,0,0,1,.788,5.045S591.912,754.54,592.11,754.433Z" transform="translate(-570.39 -738.388)" fill="#fbba23"/>
    </g>
  </g>
</svg>
